<?xml version="1.0" encoding="UTF-8" standalone="no"?><!DOCTYPE svg PUBLIC "-//W3C//DTD SVG 1.1//EN" "http://www.w3.org/Graphics/SVG/1.1/DTD/svg11.dtd"><svg width="100%" height="100%" viewBox="0 0 7971 3446" version="1.1" xmlns="http://www.w3.org/2000/svg" xmlns:xlink="http://www.w3.org/1999/xlink" xml:space="preserve" xmlns:serif="http://www.serif.com/" style="fill-rule:evenodd;clip-rule:evenodd;stroke-linejoin:round;stroke-miterlimit:2;"><g><path d="M3379.96,0c31.792,6.292 52.792,22.25 62.917,47.875c4.042,10.333 6.083,27.292 6.083,50.917c0.042,1085.12 0.084,2170.21 0.125,3255.33c0,18.958 -1.875,33.333 -5.666,43.083c-10.542,27.209 -31.875,43.417 -64.042,48.625l-2340.29,0c-142.041,-3.958 -277.458,-34.291 -406.166,-91c-24.875,-10.958 -49.709,-23.25 -74.5,-36.875c-207.209,-113.958 -360.709,-278.75 -460.459,-494.291c-55.5,-119.959 -86.541,-248.75 -93.083,-386.417c-1.125,-23.583 -1.708,-51.625 -1.708,-84.125c-0.042,-324.708 -0.084,-1075.62 -0.125,-2252.83c-0,-24.042 2.041,-41.292 6.125,-51.834c10.125,-26.125 30.958,-42.25 62.541,-48.458l3308.25,0Zm-1115.38,1247c37.209,0 57.667,0.083 61.417,0.25c1.875,0.083 3.042,0.542 3.417,1.417l17.666,38.916c2.625,5.709 8.334,9.375 14.584,9.375l55.833,0c6.292,0 10.5,-6.5 7.917,-12.208c-52,-115 -101.834,-224.708 -149.5,-329.125c-1.792,-3.917 -5.584,-5.875 -11.334,-5.875c-5.791,0 -9.541,1.958 -11.333,5.875c-47.667,104.417 -97.5,214.125 -149.5,329.125c-2.583,5.75 1.625,12.208 7.917,12.208l55.833,0c6.292,0 11.958,-3.666 14.583,-9.375l17.667,-38.916c0.375,-0.875 1.542,-1.334 3.417,-1.417c3.75,-0.167 24.208,-0.25 61.416,-0.25Zm-1688.67,-69.5l-0,37.25c-0,1.5 -0.709,2.5 -2.167,2.958c-24.25,7.542 -45.583,8.5 -64,2.792c-69.958,-21.667 -92.292,-105.5 -40.833,-158.583c12.458,-12.875 27.583,-21.25 45.333,-25.209c28.125,-6.208 53.875,-0.708 77.292,16.542c3.375,2.5 6.583,3.833 9.625,4.042c5.125,0.291 8.708,-0.625 10.708,-2.75c9.292,-9.875 21.333,-22.709 36.083,-38.5c3.542,-3.792 3.209,-9.792 -0.75,-13.167c-51.208,-43.208 -119.166,-57.917 -181.125,-33.25c-60.125,23.958 -102.541,79.667 -107.333,145.042c-3.042,41.375 5.958,78 27.083,109.791c56.917,85.917 163.75,93.792 250.167,52.292c7.125,-3.417 15.875,-6.875 15.958,-15.625c0.375,-50.458 0.375,-98 0.084,-142.625c-0.042,-5.125 -4.209,-9.25 -9.292,-9.25l-97.792,0c-4.083,0 -7.416,3.333 -7.416,7.417l-0,51.916c-0,3.542 2.875,6.417 6.416,6.417l29.459,0c1.666,0 2.5,0.833 2.5,2.5Zm711.166,-40.083c-0.541,-0.209 -1.083,-0.542 -1.625,-1.084c-12.625,-12.125 -73.041,-70.333 -181.333,-174.625c-2.958,-2.833 -6.042,-4.416 -9.333,-4.791c-3.709,-0.375 -7.334,-0.209 -10.959,0.583c-4,0.833 -6.875,4.375 -6.875,8.5l0,323.542c0,4.083 3.292,7.375 7.375,7.375l59.5,-0c6.5,-0 9.75,-3.25 9.75,-9.75l0,-172.292c0,-3.042 1.084,-3.5 3.209,-1.292c95.208,96.792 156.083,158.084 182.666,183.875c7,6.792 26.25,7.709 26.084,-6.833c-0.042,-4.125 -0,-110.667 0.166,-319.625c0,-4.75 -3.833,-8.583 -8.583,-8.583l-59.25,-0c-6.333,-0 -9.5,3.166 -9.5,9.541l0,164.542c0,0.667 -0.667,1.125 -1.292,0.917Zm-453.541,-103.959l127.333,0c7.333,0 11,-3.666 11,-11.041l0,-51.584c0,-4.666 -3.75,-8.416 -8.375,-8.416l-200.042,-0c-4.708,-0 -8.541,3.833 -8.541,8.541l-0,316c-0,5.542 4.5,10.042 10.083,10.042l197.375,0c5.25,0 9.5,-4.25 9.5,-9.458l0,-53.209c0,-4.666 -3.75,-8.458 -8.417,-8.458l-130.375,0c-1.583,0 -2.375,-0.792 -2.375,-2.333l0,-58.625c0,-1.542 0.792,-2.334 2.334,-2.334l105.75,0c5.333,0 9.625,-4.333 9.625,-9.666l-0,-52.709c-0,-4.75 -3.875,-8.625 -8.625,-8.625l-107.167,0c-1.25,0 -1.875,-0.625 -1.875,-1.916l0,-53.417c0,-1.875 0.917,-2.792 2.792,-2.792Zm735.583,0l127.375,-0.041c7.333,-0 11,-3.667 11,-11.042l-0.042,-51.583c0,-4.667 -3.75,-8.417 -8.375,-8.417l-200.083,0.042c-4.708,-0 -8.542,3.833 -8.542,8.541l0.125,316.084c0,5.541 4.5,10.041 10.084,10.041l197.416,-0.083c5.25,0 9.5,-4.208 9.5,-9.458l0,-53.209c0,-4.666 -3.791,-8.458 -8.416,-8.458l-130.417,0.042c-1.583,-0 -2.375,-0.792 -2.375,-2.334l-0.042,-58.625c0,-1.583 0.792,-2.333 2.334,-2.333l105.791,-0.042c5.334,0 9.625,-4.333 9.625,-9.666l-0.041,-52.75c-0,-4.75 -3.834,-8.625 -8.625,-8.625l-107.167,0.041c-1.25,0 -1.875,-0.625 -1.875,-1.916l-0.042,-53.417c0,-1.875 0.959,-2.792 2.792,-2.792Zm375.667,270.834c5.583,-0 9.291,-1.959 11.125,-5.875c42.583,-90.709 92.5,-197.709 149.75,-320.917c1.666,-3.583 0.958,-7.792 -1.75,-10.625c-1.542,-1.625 -4.125,-2.375 -7.75,-2.25c-1.709,0.042 -21.667,0.042 -59.792,0c-5.708,-0.042 -10.917,3.333 -13.292,8.542l-76.375,168.541c-0.208,0.5 -0.583,0.834 -1.083,1c-0.125,0.042 -0.333,0.042 -0.625,0.042c-0.333,0 -0.542,0 -0.667,-0.042c-0.5,-0.166 -0.833,-0.5 -1.083,-1l-76,-168.708c-2.333,-5.208 -7.542,-8.583 -13.292,-8.583c-38.125,-0 -58.041,-0.042 -59.791,-0.125c-3.584,-0.125 -6.167,0.625 -7.75,2.25c-2.709,2.833 -3.417,7.041 -1.75,10.625c56.958,123.333 106.666,230.416 149.041,321.208c1.834,3.958 5.542,5.917 11.084,5.917Zm-698.625,514.708c37.208,0 57.708,0.042 61.458,0.208c1.875,0.084 3,0.542 3.417,1.417l17.666,38.917c2.625,5.708 8.334,9.375 14.584,9.375l55.875,-0c6.291,-0 10.5,-6.5 7.916,-12.209c-52.041,-115.041 -101.916,-224.75 -149.666,-329.208c-1.792,-3.917 -5.542,-5.875 -11.334,-5.875c-5.75,0.042 -9.541,2 -11.291,5.875c-47.667,104.458 -97.5,214.208 -149.5,329.292c-2.584,5.708 1.625,12.208 7.916,12.208l55.875,-0.042c6.25,0 11.959,-3.666 14.584,-9.375l17.666,-38.916c0.375,-0.875 1.5,-1.334 3.375,-1.417c3.75,-0.167 24.25,-0.25 61.459,-0.25Zm1110.92,-0.125c37.209,0 57.667,0.042 61.417,0.208c1.875,0.084 3.042,0.584 3.417,1.417l17.666,38.917c2.625,5.708 8.334,9.375 14.584,9.375l55.833,-0c6.292,-0 10.5,-6.459 7.917,-12.209c-52,-115 -101.834,-224.708 -149.542,-329.125c-1.792,-3.916 -5.542,-5.875 -11.292,-5.875c-5.791,0 -9.541,1.959 -11.333,5.875c-47.667,104.417 -97.5,214.125 -149.5,329.167c-2.583,5.708 1.625,12.208 7.917,12.208l55.833,0c6.25,0 11.958,-3.666 14.583,-9.375l17.667,-38.958c0.375,-0.833 1.5,-1.333 3.417,-1.417c3.75,-0.125 24.208,-0.208 61.416,-0.208Zm-1781.12,-69.458l0,37.25c0,1.5 -0.708,2.458 -2.166,2.958c-24.25,7.542 -45.584,8.458 -64,2.792c-69.959,-21.667 -92.292,-105.5 -40.875,-158.584c12.5,-12.875 27.583,-21.291 45.333,-25.208c28.125,-6.25 53.875,-0.75 77.333,16.5c3.375,2.5 6.584,3.875 9.625,4.042c5.125,0.333 8.709,-0.584 10.709,-2.75c9.291,-9.834 21.333,-22.667 36.083,-38.5c3.542,-3.792 3.208,-9.792 -0.792,-13.167c-51.208,-43.208 -119.166,-57.875 -181.125,-33.208c-60.125,23.958 -102.541,79.666 -107.291,145.041c-3.084,41.417 5.958,78 27.083,109.792c56.917,85.917 163.75,93.792 250.167,52.25c7.125,-3.417 15.875,-6.875 15.958,-15.625c0.375,-50.417 0.375,-97.958 0.083,-142.625c-0.041,-5.125 -4.208,-9.25 -9.291,-9.25l-97.792,0.042c-4.125,-0 -7.417,3.291 -7.417,7.416l0,51.917c0,3.542 2.875,6.417 6.417,6.417l29.458,-0c1.667,-0 2.5,0.833 2.5,2.5Zm381.542,-14.042c-0.417,-0.792 -0.083,-1.75 0.708,-2.125c35.542,-16.458 61.959,-43.25 67.209,-81.417c6.916,-50.041 -21.709,-95.958 -69.417,-112.666c-9.792,-3.459 -26.458,-5.125 -50,-5.042c-33.625,0.125 -78.25,0.167 -133.792,0.042c-5.875,-0.042 -8.791,2.916 -8.791,8.791l-0,316.459c-0,6.291 3.166,9.458 9.458,9.458l57.208,0c5.292,0 9.584,-4.292 9.584,-9.542l-0,-118.666c-0,-1.292 0.666,-1.959 1.958,-1.959l34.292,0c1.458,0 2.5,0.625 3.125,1.917l60.541,121.083c2.209,4.375 6.667,7.167 11.584,7.167l62.5,0c7.125,0 11.666,-7.625 8.291,-13.875l-64.458,-119.625Zm525.792,-192.042l-0,316.167c-0,5.25 4.291,9.542 9.541,9.542l114.584,-0c93.666,-0 169.625,-75.042 169.625,-167.625c-0,-92.584 -75.959,-167.625 -169.625,-167.625l-114.584,-0c-5.25,-0 -9.541,4.291 -9.541,9.541Zm519.708,330.292c60.042,0.042 112.042,-37.708 130.75,-94.292c3.875,-11.791 5.833,-30.916 5.875,-57.291c0.125,-81.584 0.125,-141.417 0,-179.5c0,-4.584 -3.708,-8.292 -8.292,-8.292l-61.583,0c-4.5,0 -8.167,3.667 -8.208,8.167c-0.125,31.166 -0.209,91.791 -0.167,181.833c0,15.167 -1.083,25.958 -3.208,32.417c-3.625,11.125 -10.25,20.291 -19.792,27.5c-10.208,7.75 -22,11.625 -35.333,11.625c-13.334,-0 -25.125,-3.875 -35.334,-11.625c-9.541,-7.25 -16.125,-16.417 -19.75,-27.542c-2.125,-6.458 -3.208,-17.25 -3.166,-32.417c0.083,-90.083 0.083,-150.666 -0,-181.833c-0.042,-4.542 -3.709,-8.167 -8.209,-8.167l-61.583,-0.083c-4.583,0 -8.292,3.708 -8.292,8.292c-0.166,38.083 -0.208,97.916 -0.166,179.5c-0,26.375 1.958,45.5 5.833,57.291c18.625,56.584 70.625,94.375 130.625,94.417Zm648.167,-4.583c10.416,-0 20.458,-0.167 30.166,-0.5c4.5,-0.167 8.084,-3.875 8.084,-8.375l-0,-252.209c-0,-1.75 0.875,-2.625 2.625,-2.625l64.5,0c6.625,0 9.916,-3.291 9.916,-9.916l0,-53.125c0,-5.209 -2.625,-7.875 -7.833,-8c-5.333,-0.084 -41.208,-0.125 -107.625,-0.084c-66.375,0 -102.25,0.084 -107.625,0.209c-5.208,0.083 -7.792,2.75 -7.792,7.958l0.042,53.125c0,6.625 3.333,9.917 9.917,9.917l64.5,-0.042c1.75,0 2.625,0.875 2.625,2.625l0.25,252.208c-0,4.5 3.583,8.209 8.083,8.334c9.708,0.333 19.75,0.5 30.167,0.5Zm274.291,-263.709l127.375,0c7.334,0 11,-3.708 11,-11.041l-0.041,-51.625c-0,-4.625 -3.75,-8.417 -8.375,-8.417l-200.084,0.042c-4.708,-0 -8.541,3.833 -8.541,8.541l0.041,316.125c0,5.542 4.542,10.042 10.084,10.042l197.458,-0.042c5.25,0 9.5,-4.25 9.5,-9.458l0,-53.25c0,-4.667 -3.792,-8.458 -8.417,-8.458l-130.416,0.041c-1.584,0 -2.375,-0.791 -2.375,-2.333l-0.042,-58.667c0,-1.541 0.792,-2.333 2.333,-2.333l105.792,0c5.333,0 9.625,-4.333 9.625,-9.667l0,-52.75c0,-4.75 -3.875,-8.625 -8.625,-8.625l-107.208,0.042c-1.25,0 -1.875,-0.667 -1.875,-1.917l-0,-53.458c-0,-1.833 0.916,-2.792 2.791,-2.792Zm-2149.62,675.792c-0.541,-0.208 -1.083,-0.583 -1.625,-1.083c-12.625,-12.125 -73.083,-70.209 -181.416,-174.209c-2.917,-2.833 -6.042,-4.416 -9.334,-4.791c-3.666,-0.375 -7.333,-0.167 -10.916,0.583c-4,0.875 -6.875,4.417 -6.875,8.5l0.458,323.25c0,4.083 3.292,7.375 7.375,7.375l59.417,-0.083c6.5,-0 9.75,-3.25 9.75,-9.75l-0.25,-172.125c-0,-3.084 1.083,-3.5 3.208,-1.292c95.25,96.542 156.167,157.708 182.75,183.417c7,6.791 26.25,7.666 26.042,-6.834c-0.042,-4.125 -0.125,-110.583 -0.25,-319.333c-0,-4.75 -3.875,-8.583 -8.584,-8.583l-59.208,0.083c-6.333,0 -9.5,3.208 -9.458,9.542l0.208,164.416c0,0.625 -0.667,1.125 -1.292,0.917Zm308.875,72.625c-3.708,15.833 -14.25,23.875 -31.666,24.083c-21.667,0.25 -47.209,-12.708 -66.959,-25.958c-6.166,-4.167 -14.541,-2.208 -18.25,4.208l-23.208,40.167c-2.042,3.5 -1.333,7.958 1.625,10.708c30.5,28.25 70.625,38.834 112.083,38.5c31.542,-0.208 62.542,-11.333 84.25,-34.125c28.292,-29.666 35.875,-75.291 14.917,-111.708c-21.833,-37.958 -60.625,-52.5 -100.458,-70.083c-20.125,-8.875 -50.625,-31.459 -28.292,-53.75c20.875,-20.834 64.875,3.375 85,17.791c7.917,5.709 15.625,4.625 21.25,-3.375c7.083,-10.083 15.5,-22.75 25.208,-38.041c3.042,-4.792 1.959,-11.125 -2.541,-14.584c-28.625,-22.166 -60.959,-34.291 -96.917,-36.375c-55.667,-3.166 -108.875,25.542 -116.333,83.75c-6.25,48.709 25.541,84.417 65.708,105.5c3.875,2.042 17.833,8.5 41.833,19.292c16.25,7.333 37.125,25.083 32.75,44Zm-626.333,-238.917c0,-4.833 -3.917,-8.75 -8.75,-8.75l-58.833,0c-4.834,0 -8.75,3.917 -8.75,8.75l-0,317.084c-0,4.833 3.916,8.75 8.75,8.75l58.833,-0c4.833,-0 8.75,-3.917 8.75,-8.75l0,-317.084Zm885.833,325.917c10.375,0 20.459,-0.167 30.167,-0.5c4.5,-0.125 8.042,-3.833 8.083,-8.333l0.375,-252c0,-1.75 0.875,-2.625 2.625,-2.625l64.459,0.083c6.583,0 9.916,-3.292 9.916,-9.875l0.084,-53.083c-0,-5.25 -2.584,-7.875 -7.792,-8c-5.375,-0.125 -41.208,-0.209 -107.542,-0.292c-66.333,-0.083 -102.208,-0.042 -107.541,0.042c-5.209,0.083 -7.834,2.75 -7.834,8l-0.041,53.083c-0,6.583 3.291,9.875 9.916,9.917l64.459,0.041c1.75,0 2.625,0.875 2.625,2.625l-0.167,252c-0,4.5 3.542,8.209 8.042,8.375c9.708,0.334 19.75,0.542 30.166,0.542Zm268.292,-326.292c0,-4.666 -3.75,-8.416 -8.417,-8.416l-59.416,-0c-4.667,-0 -8.417,3.75 -8.417,8.416l-0,317.75c-0,4.667 3.75,8.417 8.417,8.417l59.416,0c4.667,0 8.417,-3.75 8.417,-8.417l0,-317.75Zm191.042,326.292c10.416,0 20.458,-0.167 30.166,-0.5c4.5,-0.167 8.042,-3.875 8.084,-8.375l0.125,-252c-0,-1.75 0.875,-2.625 2.625,-2.625l64.458,0.042c6.625,-0 9.917,-3.292 9.917,-9.875l0.041,-53.084c0,-5.208 -2.625,-7.875 -7.833,-8c-5.333,-0.125 -41.167,-0.166 -107.5,-0.166c-66.333,-0.042 -102.208,0.041 -107.542,0.125c-5.208,0.125 -7.833,2.791 -7.833,8l0.042,53.083c-0,6.583 3.291,9.875 9.916,9.875l64.417,0c1.75,0 2.625,0.875 2.625,2.625l0.083,252c0,4.5 3.584,8.208 8.042,8.333c9.708,0.375 19.792,0.542 30.167,0.542Zm325.5,4.875c60.041,0 112.041,-37.75 130.708,-94.292c3.917,-11.833 5.875,-30.916 5.917,-57.291c0.083,-81.584 0.083,-141.417 -0,-179.5c-0,-4.584 -3.709,-8.292 -8.292,-8.292l-61.583,0c-4.542,0 -8.209,3.625 -8.209,8.167c-0.166,31.166 -0.208,91.75 -0.166,181.833c-0,15.167 -1.084,25.958 -3.209,32.417c-3.666,11.125 -10.25,20.291 -19.791,27.5c-10.209,7.75 -22,11.625 -35.334,11.625c-13.333,-0 -25.125,-3.917 -35.333,-11.667c-9.542,-7.208 -16.125,-16.375 -19.75,-27.5c-2.125,-6.458 -3.208,-17.292 -3.208,-32.458c0.125,-90.042 0.125,-150.625 -0,-181.792c-0,-4.542 -3.667,-8.208 -8.167,-8.208l-61.583,-0.042c-4.584,0 -8.292,3.708 -8.334,8.292c-0.125,38.083 -0.166,97.916 -0.166,179.5c0.041,26.375 1.958,45.5 5.875,57.291c18.625,56.584 70.583,94.375 130.625,94.417Zm325.791,-4.958c10.375,-0 20.459,-0.167 30.167,-0.542c4.458,-0.125 8.042,-3.833 8.042,-8.333l0.041,-251.959c0,-1.75 0.875,-2.625 2.625,-2.625l64.417,0c6.625,0 9.917,-3.291 9.917,-9.875l-0,-53.083c-0,-5.208 -2.584,-7.875 -7.792,-8c-5.375,-0.083 -41.208,-0.125 -107.5,-0.125c-66.333,0.042 -102.167,0.083 -107.542,0.208c-5.208,0.084 -7.791,2.75 -7.791,8l0.041,53.042c0,6.625 3.292,9.917 9.917,9.917l64.417,-0.042c1.75,0 2.625,0.875 2.625,2.625l0.208,251.917c0,4.541 3.542,8.208 8.042,8.375c9.708,0.333 19.75,0.5 30.166,0.5Zm272.417,-263.459l127.333,0.042c7.334,0 11,-3.667 11,-11.042l0.042,-51.583c0,-4.667 -3.75,-8.417 -8.375,-8.417l-200.042,-0.083c-4.708,0 -8.541,3.833 -8.541,8.542l-0.084,316c0,5.541 4.5,10.041 10.084,10.041l197.333,0.042c5.25,0 9.5,-4.208 9.5,-9.458l0.042,-53.167c-0,-4.708 -3.792,-8.458 -8.417,-8.5l-130.375,0c-1.583,0 -2.375,-0.792 -2.375,-2.333l0,-58.625c0,-1.584 0.792,-2.334 2.333,-2.334l105.75,0c5.334,0 9.625,-4.291 9.625,-9.666l0.042,-52.667c0,-4.792 -3.875,-8.625 -8.625,-8.625l-107.167,-0.042c-1.25,0 -1.875,-0.666 -1.875,-1.916l0,-53.417c0,-1.875 0.959,-2.792 2.792,-2.792Z" style="fill:#e41b21;fill-rule:nonzero;"/><path d="M2264.58,949.75c5.75,0 9.542,1.958 11.334,5.875c47.666,104.417 97.5,214.125 149.5,329.125c2.583,5.708 -1.625,12.208 -7.917,12.208l-55.833,0c-6.25,0 -11.959,-3.666 -14.584,-9.375l-17.666,-38.916c-0.375,-0.875 -1.542,-1.334 -3.417,-1.417c-3.75,-0.167 -24.208,-0.25 -61.417,-0.25c-37.208,-0 -57.666,0.083 -61.416,0.25c-1.875,0.083 -3.042,0.542 -3.417,1.417l-17.667,38.916c-2.625,5.709 -8.291,9.375 -14.583,9.375l-55.833,0c-6.292,0 -10.5,-6.458 -7.917,-12.208c52,-115 101.833,-224.708 149.5,-329.125c1.792,-3.917 5.542,-5.875 11.333,-5.875Zm-37.041,229.625c-0.334,0.875 0.333,1.833 1.25,1.833l71.541,-0.125c0.917,0 1.542,-0.958 1.209,-1.833l-35.917,-91.708c-0.417,-1.125 -2.042,-1.125 -2.458,-0l-35.625,91.833Z" style="fill:#fff;fill-rule:nonzero;"/><path d="M4142.5,1037.21c-1.292,-1.375 -1.917,-1.125 -1.917,0.75l-0.083,119.667c0,6.917 -3.458,10.375 -10.375,10.375l-18.875,0c-6.833,-0.042 -10.25,-3.458 -10.25,-10.292l0.083,-183.625c0,-22.625 7.75,-25.708 23.25,-9.208l111.834,118.958c1.5,1.584 2.208,1.25 2.208,-1l0.083,-114.291c0,-6.667 3.334,-10 10.042,-10l19.75,-0c6.667,-0 10,3.333 10,10c-0.083,58.708 -0.083,122.5 -0.083,191.375c-0,4.333 -1.084,7.375 -3.25,9.208c-4.334,3.708 -10,2.708 -13.792,-1.5c-48.958,-54.125 -88.5,-97.625 -118.625,-130.417Z" style="fill:#5c6670;fill-rule:nonzero;"/><path d="M4416.62,1098.17c-3.875,-4.792 -10.208,-9.334 -19,-13.667c-22.667,-11.042 -35.083,-17.208 -37.167,-18.417c-24.791,-14.5 -35.125,-35.708 -30.916,-63.708c2.375,-15.667 11.166,-28.083 26.5,-37.292c28,-16.833 69.458,-10.541 96.291,7.875c5.834,4 7,9.125 3.417,15.292l-7,12.083c-3.208,5.584 -10.333,7.667 -16.083,4.709c-15.5,-8.042 -30.417,-17.292 -46.709,-13.292c-17.291,4.208 -22.958,21.167 -10.791,35.125c5.458,6.25 18.833,13.167 29.25,17.208c34.083,13.25 64.416,33.417 61.125,71.917c-3.125,36.958 -36.542,55.75 -72.292,55c-21.542,-0.417 -41.125,-7 -58.833,-19.708c-6.167,-4.5 -7.375,-10.042 -3.542,-16.625l6.25,-10.834c4.333,-7.5 10.167,-8.916 17.458,-4.25c13.542,8.625 30,17.709 46.375,15.209c18.209,-2.75 27.917,-21.334 15.667,-36.625Z" style="fill:#5c6670;fill-rule:nonzero;"/><path d="M6174.54,1129.92c-25.334,-0 -39.167,0.041 -41.542,0.208c-1.75,0.125 -2.917,0.708 -3.417,1.792l-14.291,31.416c-1.167,2.625 -3.75,4.334 -6.625,4.417c-12.917,0.417 -21.625,0.5 -26.084,0.25c-4.5,-0.25 -7.083,-1.25 -7.791,-3.083c-0.625,-1.667 -0.584,-3.542 0.125,-5.167c33.958,-73.833 64.833,-140.542 92.541,-200.083c1.292,-2.792 3.75,-4.167 7.292,-4.167c3.667,0 6.125,1.375 7.417,4.167c27.541,59.666 58.166,126.458 91.916,200.416c0.709,1.625 0.75,3.459 0.125,5.167c-0.708,1.792 -3.291,2.792 -7.791,3.042c-4.5,0.208 -13.167,0.083 -26.084,-0.334c-2.875,-0.125 -5.458,-1.833 -6.625,-4.416l-14.208,-31.459c-0.5,-1.083 -1.625,-1.708 -3.417,-1.833c-2.333,-0.167 -16.208,-0.292 -41.541,-0.333Zm-28.292,-35.834c-0.417,0.917 0.25,1.875 1.208,1.875l53.875,-0.25c0.959,-0.041 1.625,-1.041 1.209,-1.916l-27.25,-59.875c-0.459,-1.042 -1.959,-1.042 -2.417,-0l-26.625,60.166Z" style="fill:#5c6670;fill-rule:nonzero;"/><path d="M6940.62,1098.17c-3.833,-4.792 -10.167,-9.375 -19,-13.667c-22.667,-11.042 -35.042,-17.208 -37.125,-18.417c-24.833,-14.458 -35.125,-35.708 -30.917,-63.708c2.334,-15.625 11.167,-28.083 26.459,-37.292c28,-16.833 69.458,-10.5 96.291,7.875c5.834,4 7,9.125 3.459,15.292l-7.042,12.042c-3.208,5.625 -10.292,7.708 -16.042,4.708c-15.5,-8 -30.416,-17.25 -46.708,-13.25c-17.292,4.208 -22.958,21.167 -10.792,35.125c5.459,6.25 18.834,13.167 29.209,17.208c34.083,13.209 64.416,33.375 61.166,71.875c-3.125,36.959 -36.541,55.792 -72.291,55.042c-21.542,-0.417 -41.125,-7 -58.834,-19.708c-6.166,-4.5 -7.375,-10.042 -3.541,-16.625l6.25,-10.834c4.333,-7.5 10.166,-8.916 17.458,-4.25c13.542,8.625 30,17.709 46.375,15.209c18.208,-2.75 27.917,-21.334 15.625,-36.625Z" style="fill:#5c6670;fill-rule:nonzero;"/><path d="M573.417,1175l-29.459,0c-3.541,0 -6.416,-2.875 -6.416,-6.417l-0,-51.916c-0,-4.084 3.333,-7.417 7.416,-7.417l97.792,0c5.083,0 9.25,4.125 9.292,9.25c0.291,44.625 0.291,92.167 -0.084,142.625c-0.083,8.75 -8.833,12.208 -15.958,15.625c-86.417,41.5 -193.25,33.625 -250.167,-52.292c-21.125,-31.791 -30.125,-68.416 -27.083,-109.791c4.792,-65.375 47.208,-121.084 107.333,-145.042c61.959,-24.667 129.917,-9.958 181.125,33.25c3.959,3.375 4.292,9.375 0.75,13.167c-14.75,15.791 -26.791,28.625 -36.083,38.5c-2,2.125 -5.583,3.041 -10.708,2.75c-3.042,-0.209 -6.25,-1.542 -9.625,-4.042c-23.417,-17.25 -49.167,-22.75 -77.292,-16.542c-17.75,3.959 -32.875,12.334 -45.333,25.209c-51.459,53.083 -29.125,136.916 40.833,158.583c18.417,5.708 39.75,4.75 64,-2.792c1.458,-0.458 2.167,-1.458 2.167,-2.958l-0,-37.25c-0,-1.667 -0.834,-2.5 -2.5,-2.5Z" style="fill:#fff;fill-rule:nonzero;"/><path d="M1287.08,1137.42c0.625,0.208 1.292,-0.25 1.292,-0.917l0,-164.542c0,-6.375 3.167,-9.541 9.5,-9.541l59.25,-0c4.75,-0 8.583,3.833 8.583,8.583c-0.166,208.958 -0.208,315.5 -0.166,319.625c0.166,14.542 -19.084,13.625 -26.084,6.833c-26.583,-25.791 -87.458,-87.083 -182.666,-183.875c-2.125,-2.208 -3.209,-1.75 -3.209,1.292l0,172.292c0,6.5 -3.25,9.75 -9.75,9.75l-59.5,-0c-4.083,-0 -7.375,-3.292 -7.375,-7.375l0,-323.542c0,-4.125 2.875,-7.667 6.875,-8.5c3.625,-0.792 7.25,-0.958 10.959,-0.583c3.291,0.375 6.375,1.958 9.333,4.791c108.292,104.292 168.708,162.5 181.333,174.625c0.542,0.542 1.084,0.875 1.625,1.084Z" style="fill:#fff;fill-rule:nonzero;"/><path d="M4039.67,966.375l-0,193.75c-0,4.323 -3.51,7.833 -7.834,7.833l-24,0c-4.323,0 -7.833,-3.51 -7.833,-7.833l0,-193.75c0,-4.323 3.51,-7.833 7.833,-7.833l24,-0c4.324,-0 7.834,3.51 7.834,7.833Z" style="fill:#5c6670;"/><path d="M4563,958.417c19.75,-0 40.125,-0.042 61.125,-0.042c6.875,0 10.292,3.417 10.292,10.292l-0,15.791c-0,6.959 -3.459,10.417 -10.417,10.417l-38.708,0c-1.375,0 -2.084,0.708 -2.084,2.083l0,162.459c0,4.291 -3.333,7.833 -7.583,8.083c-3.75,0.208 -7.958,0.333 -12.625,0.333c-4.625,0 -8.833,-0.125 -12.583,-0.333c-4.292,-0.25 -7.584,-3.792 -7.584,-8.083l-0.041,-162.459c-0,-1.375 -0.667,-2.083 -2.084,-2.083l-38.708,0c-6.917,0 -10.417,-3.458 -10.417,-10.417l0,-15.791c0,-6.834 3.459,-10.292 10.292,-10.292c21,0 41.375,0.042 61.125,0.042Z" style="fill:#5c6670;fill-rule:nonzero;"/><path d="M4711.5,966.292l0,193.833c0,4.323 -3.51,7.833 -7.833,7.833l-24,0c-4.324,0 -7.834,-3.51 -7.834,-7.833l0,-193.833c0,-4.324 3.51,-7.834 7.834,-7.834l24,0c4.323,0 7.833,3.51 7.833,7.834Z" style="fill:#5c6670;"/><path d="M4820.29,1167.83c-4.667,0 -8.875,-0.125 -12.625,-0.375c-4.25,-0.25 -7.584,-3.791 -7.584,-8.083l0.042,-162.417c-0,-1.375 -0.708,-2.083 -2.083,-2.083l-38.709,0c-6.958,0 -10.416,-3.458 -10.416,-10.417l-0,-15.791c-0,-6.834 3.458,-10.292 10.291,-10.292c21,0.042 41.375,0.042 61.125,0.042l61.084,-0c6.875,-0 10.291,3.416 10.291,10.291l0,15.792c0,6.917 -3.458,10.417 -10.416,10.417l-38.709,-0.042c-1.375,0 -2.083,0.708 -2.083,2.083l-0.042,162.459c0,4.25 -3.291,7.791 -7.541,8.041c-3.75,0.25 -7.959,0.375 -12.625,0.375Z" style="fill:#5c6670;fill-rule:nonzero;"/><path d="M5010.92,1131.42c17.916,-0 34.291,-11.584 40.166,-28.375c1.792,-5 2.667,-13.292 2.709,-24.917c0.083,-36.542 0.083,-73.25 -0,-110.083c-0.042,-6.625 3.291,-9.917 9.916,-9.917l20.875,0c6.667,0 10,3.333 10,10c0,64.458 0.125,102.833 0.417,115.125c1.25,49.542 -34.583,87.958 -84.042,87.958c-49.5,0 -85.291,-38.416 -84.083,-87.958c0.292,-12.25 0.417,-50.667 0.417,-115.125c-0,-6.667 3.333,-10 10,-10l20.875,0c6.625,0 9.958,3.292 9.916,9.917c-0.083,36.833 -0.083,73.541 0,110.083c0.042,11.625 0.917,19.917 2.709,24.917c5.875,16.791 22.25,28.375 40.125,28.375Z" style="fill:#5c6670;fill-rule:nonzero;"/><path d="M5201.54,1167.96c-4.667,0 -8.875,-0.125 -12.625,-0.333c-4.25,-0.292 -7.584,-3.833 -7.584,-8.125l0.084,-162.583c-0,-1.375 -0.709,-2.084 -2.084,-2.084l-38.75,0c-6.958,0 -10.416,-3.5 -10.416,-10.458l-0,-15.792c-0,-6.875 3.458,-10.291 10.291,-10.291c21.042,0.041 41.417,0.041 61.167,0.083c19.792,-0.042 40.167,-0.042 61.167,-0.042c6.875,0 10.333,3.459 10.333,10.334l-0,15.791c-0.042,6.959 -3.5,10.417 -10.458,10.417l-38.75,0c-1.375,0 -2.084,0.667 -2.084,2.083l-0.083,162.584c-0,4.291 -3.292,7.833 -7.583,8.083c-3.75,0.208 -7.959,0.333 -12.625,0.333Z" style="fill:#5c6670;fill-rule:nonzero;"/><path d="M5381.04,965.875c-0,-4.208 3.416,-7.625 7.625,-7.667l67.75,-0.083c58.458,-0.125 105.958,46.625 106.041,104.375l0,0.667c0.084,57.75 -47.208,104.666 -105.708,104.791l-67.75,0.084c-4.208,0.041 -7.625,-3.375 -7.625,-7.584l-0.333,-194.583Zm38.75,31.625l-0,131.083c-0,1 0.791,1.792 1.791,1.792l33.209,0c35.916,0 65,-29.042 65,-64.833l-0,-5c-0,-35.792 -29.084,-64.834 -65,-64.834l-33.209,0c-1,0 -1.791,0.792 -1.791,1.792Z" style="fill:#5c6670;fill-rule:nonzero;"/><path d="M5652.33,994.875c-1.5,0 -2.25,0.75 -2.25,2.25l0,43.375c0,1.458 0.75,2.167 2.209,2.167l66.666,0.041c6.792,0 10.209,3.417 10.209,10.25l-0,16.917c-0,6.875 -3.459,10.333 -10.334,10.333l-66.625,-0.041c-1.208,-0 -2.166,1 -2.166,2.166l-0,47.709c-0,0.625 0.5,1.125 1.166,1.125l83.25,-0c6.167,-0 9.209,3.083 9.209,9.208l-0,17.917c-0,6.25 -3.125,9.333 -9.334,9.333l-115.791,0c-4.584,0 -8.292,-3.708 -8.25,-8.292l-0,-191.666c-0,-6.209 3.125,-9.292 9.291,-9.292l114.417,0.042c6.542,-0 9.833,3.25 9.833,9.791l0,16.917c0,6.5 -3.291,9.75 -9.791,9.75l-81.709,-0Z" style="fill:#5c6670;fill-rule:nonzero;"/><path d="M5951.38,1042.71c26.917,0 42.208,-0.083 45.875,-0.166c1.125,-0 2,-0.917 2,-2.042l0,-71.5c0,-7.167 3.583,-10.75 10.708,-10.75l18.167,-0c7.542,-0 11.333,3.792 11.333,11.333l0,188.875c0,6.209 -3.125,9.292 -9.333,9.292l-21.083,0c-6.5,0 -9.75,-3.25 -9.75,-9.75l-0,-76.458c-0,-0.667 -0.542,-1.209 -1.167,-1.209c-15.5,-0.083 -31.083,-0.125 -46.75,-0.125c-15.625,0 -31.208,0.084 -46.708,0.167c-0.667,0 -1.167,0.542 -1.167,1.208l0.042,76.459c-0,6.5 -3.25,9.75 -9.75,9.75l-21.084,-0c-6.208,-0 -9.333,-3.084 -9.333,-9.25l-0.125,-188.875c-0.042,-7.584 3.75,-11.375 11.292,-11.375l18.166,-0c7.167,-0 10.709,3.583 10.75,10.75l0.042,71.5c-0,1.125 0.875,2 2,2.041c3.667,0.084 18.958,0.125 45.875,0.125Z" style="fill:#5c6670;fill-rule:nonzero;"/><path d="M6381.25,1171.08c-49.333,0 -85.042,-38.333 -83.792,-87.708c0.292,-12.25 0.417,-50.542 0.459,-114.833c-0,-6.625 3.333,-9.959 9.958,-9.959l20.833,0c6.625,0 9.917,3.334 9.875,9.917c-0.083,36.708 -0.083,73.292 -0.041,109.75c0.041,11.583 0.916,19.875 2.666,24.875c5.875,16.708 22.209,28.292 40.042,28.292c17.875,-0 34.208,-11.542 40.042,-28.25c1.791,-5 2.666,-13.292 2.708,-24.875c0.125,-36.459 0.125,-73.042 0.042,-109.75c-0,-6.625 3.291,-9.917 9.916,-9.917l20.792,0.042c6.667,-0 10,3.291 10,9.958c-0.042,64.292 0.083,102.542 0.375,114.792c1.167,49.416 -34.542,87.708 -83.875,87.666Z" style="fill:#5c6670;fill-rule:nonzero;"/><path d="M6572.38,1167.88c-4.667,0 -8.875,-0.125 -12.625,-0.375c-4.25,-0.25 -7.542,-3.792 -7.542,-8.083l0.042,-162.542c0,-1.375 -0.708,-2.083 -2.083,-2.083l-38.75,-0c-6.917,-0 -10.417,-3.459 -10.417,-10.417l0,-15.792c0.042,-6.875 3.458,-10.291 10.333,-10.291c21,-0 41.375,0.041 61.125,0.041l61.167,0c6.875,0 10.292,3.417 10.292,10.292l-0,15.792c-0,6.958 -3.5,10.416 -10.417,10.416l-38.75,0c-1.375,0 -2.083,0.667 -2.083,2.084l-0.084,162.541c0,4.292 -3.333,7.834 -7.583,8.084c-3.75,0.208 -7.958,0.333 -12.625,0.333Z" style="fill:#5c6670;fill-rule:nonzero;"/><path d="M6723.04,994.833c-1.5,0 -2.25,0.75 -2.25,2.292l0.041,43.417c0,1.458 0.75,2.166 2.209,2.166l66.708,-0.083c6.833,0 10.25,3.417 10.25,10.292l0.042,16.916c-0,6.875 -3.459,10.334 -10.334,10.334l-66.708,0.083c-1.208,0 -2.167,0.958 -2.167,2.167l0.042,47.75c-0,0.625 0.542,1.125 1.167,1.125l83.375,-0.084c6.125,-0.041 9.208,3.042 9.208,9.167l0.042,17.958c-0,6.209 -3.125,9.334 -9.334,9.375l-115.916,0.084c-4.584,0.041 -8.292,-3.667 -8.292,-8.25l-0.208,-191.875c-0,-6.209 3.083,-9.292 9.291,-9.292l114.542,-0.125c6.542,0 9.833,3.25 9.833,9.792l0,16.958c0,6.5 -3.25,9.75 -9.75,9.75l-81.791,0.083Z" style="fill:#5c6670;fill-rule:nonzero;"/><path d="M830.75,1036.25l0,53.417c0,1.291 0.625,1.916 1.875,1.916l107.167,0c4.75,0 8.625,3.875 8.625,8.625l-0,52.709c-0,5.333 -4.292,9.666 -9.625,9.666l-105.75,0c-1.542,0 -2.334,0.792 -2.334,2.334l0,58.625c0,1.541 0.792,2.333 2.375,2.333l130.375,0c4.667,0 8.417,3.792 8.417,8.458l0,53.209c0,5.208 -4.25,9.458 -9.5,9.458l-197.375,-0c-5.583,-0 -10.083,-4.5 -10.083,-10.042l-0,-316c-0,-4.708 3.833,-8.541 8.541,-8.541l200.042,-0c4.625,-0 8.375,3.75 8.375,8.416l-0,51.584c-0,7.375 -3.667,11.041 -11,11.041l-127.333,0c-1.875,0 -2.792,0.917 -2.792,2.792Z" style="fill:#fff;fill-rule:nonzero;"/><path d="M1569.12,1033.46c-1.833,0 -2.792,0.917 -2.792,2.792l0.042,53.417c0,1.291 0.625,1.916 1.875,1.916l107.167,-0.041c4.791,-0 8.625,3.875 8.625,8.625l0.041,52.75c0,5.333 -4.291,9.666 -9.625,9.666l-105.791,0.042c-1.542,0 -2.334,0.75 -2.334,2.333l0.042,58.625c0,1.542 0.792,2.334 2.375,2.334l130.417,-0.042c4.625,0 8.416,3.792 8.416,8.458l0,53.209c0,5.25 -4.25,9.458 -9.5,9.458l-197.416,0.083c-5.584,0 -10.084,-4.5 -10.084,-10.041l-0.125,-316.084c0,-4.708 3.834,-8.541 8.542,-8.541l200.083,-0.042c4.625,-0 8.375,3.75 8.375,8.417l0.042,51.583c0,7.375 -3.667,11.042 -11,11.042l-127.375,0.041Z" style="fill:#fff;fill-rule:nonzero;"/><path d="M1945,1142.75c0.292,0 0.5,0 0.625,-0.042c0.5,-0.166 0.875,-0.5 1.083,-1l76.375,-168.541c2.375,-5.209 7.584,-8.584 13.292,-8.542c38.125,0.042 58.083,0.042 59.792,-0c3.625,-0.125 6.208,0.625 7.75,2.25c2.708,2.833 3.416,7.042 1.75,10.625c-57.25,123.208 -107.167,230.208 -149.75,320.917c-1.834,3.916 -5.542,5.875 -11.125,5.875c-5.542,-0 -9.25,-1.959 -11.084,-5.917c-42.375,-90.792 -92.083,-197.875 -149.041,-321.208c-1.667,-3.584 -0.959,-7.792 1.75,-10.625c1.583,-1.625 4.166,-2.375 7.75,-2.25c1.75,0.083 21.666,0.125 59.791,0.125c5.75,-0 10.959,3.375 13.292,8.583l76,168.708c0.25,0.5 0.583,0.834 1.083,1c0.125,0.042 0.334,0.042 0.667,0.042Z" style="fill:#fff;fill-rule:nonzero;"/><path d="M2227.54,1179.38l35.625,-91.833c0.416,-1.125 2.041,-1.125 2.458,-0l35.917,91.708c0.333,0.875 -0.292,1.833 -1.209,1.833l-71.541,0.125c-0.917,0 -1.584,-0.958 -1.25,-1.833Z" style="fill:#e41b21;fill-rule:nonzero;"/><path d="M4096.42,1230.75l4.958,11.167c1.875,4.291 -0.042,9.291 -4.333,11.166l-47.375,20.917c-3.959,1.75 -8.584,0.25 -10.75,-3.5l-3.292,-5.667c-2.333,-4.041 -0.917,-9.208 3.125,-11.541l45.708,-26.459c4.375,-2.5 9.959,-0.708 11.959,3.917Z" style="fill:#5c6670;fill-rule:nonzero;"/><path d="M5058.62,1433.54c-3.875,-4.834 -10.167,-9.375 -19,-13.709c-22.667,-11.041 -35.042,-17.208 -37.167,-18.416c-24.791,-14.5 -35.083,-35.75 -30.875,-63.75c2.334,-15.625 11.167,-28.042 26.5,-37.292c28,-16.792 69.459,-10.5 96.292,7.917c5.875,4 7,9.125 3.458,15.291l-7,12.084c-3.25,5.625 -10.333,7.666 -16.125,4.708c-15.5,-8.042 -30.375,-17.292 -46.708,-13.292c-17.292,4.209 -22.958,21.167 -10.792,35.125c5.459,6.25 18.834,13.167 29.25,17.209c34.084,13.25 64.417,33.416 61.125,71.958c-3.125,36.958 -36.583,55.75 -72.333,55c-21.542,-0.458 -41.125,-7 -58.833,-19.75c-6.209,-4.5 -7.375,-10.042 -3.542,-16.625l6.25,-10.833c4.375,-7.5 10.167,-8.917 17.5,-4.25c13.5,8.625 29.958,17.75 46.375,15.25c18.208,-2.75 27.917,-21.334 15.625,-36.625Z" style="fill:#5c6670;fill-rule:nonzero;"/><path d="M5365.42,1372.5c-1.292,-1.375 -1.917,-1.125 -1.917,0.75l-0.042,119.708c0,6.959 -3.458,10.417 -10.375,10.417l-18.916,0c-6.834,0 -10.25,-3.458 -10.25,-10.292l-0,-183.75c0.041,-22.666 7.791,-25.708 23.291,-9.208l111.959,119c1.5,1.542 2.208,1.208 2.208,-1l0.042,-114.417c-0,-6.666 3.333,-10 10.041,-10l19.75,0c6.667,0 10,3.334 10,10.042c-0.041,58.708 0,122.542 0.042,191.5c0,4.333 -1.125,7.375 -3.292,9.167c-4.333,3.75 -10,2.75 -13.791,-1.459c-49,-54.166 -88.625,-97.666 -118.75,-130.458Z" style="fill:#5c6670;fill-rule:nonzero;"/><path d="M6152.83,1372.38c-1.291,-1.333 -1.916,-1.083 -1.916,0.75l-0.042,119.917c0,6.916 -3.458,10.375 -10.417,10.375l-18.916,-0c-6.875,-0 -10.292,-3.417 -10.292,-10.292l0.042,-183.958c-0,-22.709 7.791,-25.75 23.333,-9.25l112.083,119.166c1.459,1.584 2.209,1.25 2.209,-1l0.041,-114.541c0,-6.667 3.334,-10.042 10.084,-10l19.75,-0c6.666,-0 10.041,3.333 10,10c-0.042,58.833 -0.042,122.75 -0,191.791c-0,4.292 -1.084,7.375 -3.25,9.167c-4.334,3.708 -10.042,2.75 -13.834,-1.458c-49.083,-54.25 -88.708,-97.792 -118.875,-130.667Z" style="fill:#5c6670;fill-rule:nonzero;"/><path d="M6424.33,1465.29c-25.333,-0.042 -39.208,0.041 -41.541,0.208c-1.792,0.083 -2.959,0.708 -3.459,1.792l-14.291,31.416c-1.167,2.584 -3.75,4.292 -6.625,4.375c-12.917,0.417 -21.625,0.5 -26.084,0.25c-4.5,-0.25 -7.083,-1.25 -7.791,-3.083c-0.625,-1.667 -0.584,-3.542 0.125,-5.167c34,-73.833 64.875,-140.5 92.625,-200.041c1.291,-2.792 3.708,-4.167 7.291,-4.167c3.667,-0 6.125,1.375 7.417,4.167c27.5,59.666 58.125,126.458 91.833,200.416c0.709,1.625 0.75,3.5 0.125,5.167c-0.708,1.833 -3.291,2.833 -7.791,3.042c-4.5,0.25 -13.167,0.125 -26.084,-0.334c-2.875,-0.083 -5.458,-1.791 -6.625,-4.416l-14.166,-31.459c-0.5,-1.083 -1.667,-1.708 -3.459,-1.833c-2.333,-0.167 -16.166,-0.25 -41.5,-0.333Zm-28.25,-35.959c-0.458,0.959 0.25,2.042 1.334,2.042l53.583,-0.292c1.042,0 1.75,-1.083 1.292,-2.041l-27.084,-59.459c-0.541,-1.125 -2.166,-1.125 -2.666,0.042l-26.459,59.708Z" style="fill:#5c6670;fill-rule:nonzero;"/><path d="M7005.88,1398.62c0,59.625 -48.333,107.958 -107.958,107.958c-59.625,0 -107.959,-48.333 -107.959,-107.958c0,-59.625 48.334,-107.958 107.959,-107.958c59.625,-0 107.958,48.333 107.958,107.958Zm-40.333,0.042c-0,-37.375 -30.292,-67.667 -67.667,-67.667c-37.375,0 -67.667,30.292 -67.667,67.667c0,37.375 30.292,67.666 67.667,67.666c37.375,0 67.667,-30.291 67.667,-67.666Z" style="fill:#5c6670;fill-rule:nonzero;"/><path d="M7094.58,1372.5c-1.25,-1.375 -1.916,-1.125 -1.916,0.75l-0.042,119.708c0,6.917 -3.458,10.417 -10.375,10.417l-18.917,-0.042c-6.833,0 -10.25,-3.416 -10.25,-10.25l0.042,-183.75c0,-22.625 7.792,-25.708 23.292,-9.208l111.916,119c1.459,1.583 2.209,1.25 2.209,-1l0.041,-114.375c0,-6.667 3.375,-10 10.084,-10l19.708,0c6.708,0 10.042,3.333 10.042,10.042c-0.084,58.708 -0.084,122.541 -0.042,191.5c0,4.291 -1.083,7.333 -3.25,9.166c-4.333,3.709 -10.042,2.75 -13.833,-1.458c-49,-54.208 -88.542,-97.708 -118.709,-130.5Z" style="fill:#5c6670;fill-rule:nonzero;"/><path d="M7365.88,1465.33c-25.333,-0.083 -39.208,0 -41.542,0.167c-1.791,0.083 -2.958,0.708 -3.458,1.792l-14.292,31.416c-1.208,2.625 -3.75,4.334 -6.666,4.417c-12.917,0.375 -21.584,0.458 -26.084,0.25c-4.5,-0.25 -7.083,-1.292 -7.791,-3.083c-0.625,-1.709 -0.584,-3.542 0.125,-5.167c34.041,-73.875 64.916,-140.625 92.708,-200.167c1.292,-2.791 3.708,-4.208 7.292,-4.166c3.666,-0 6.125,1.375 7.416,4.166c27.5,59.709 58.125,126.542 91.875,200.542c0.709,1.625 0.75,3.5 0.125,5.167c-0.708,1.833 -3.333,2.833 -7.833,3.041c-4.458,0.25 -13.167,0.125 -26.083,-0.333c-2.875,-0.083 -5.459,-1.833 -6.625,-4.417l-14.167,-31.5c-0.5,-1.083 -1.667,-1.666 -3.458,-1.791c-2.334,-0.209 -16.209,-0.292 -41.542,-0.334Zm-28.292,-35.75c-0.375,0.834 0.25,1.792 1.167,1.75l54,-0.25c0.917,-0.041 1.5,-0.958 1.125,-1.791l-27.333,-60.042c-0.417,-1 -1.834,-1 -2.25,0l-26.709,60.333Z" style="fill:#5c6670;fill-rule:nonzero;"/><path d="M7919,1433.54c-3.833,-4.792 -10.167,-9.375 -19,-13.667c-22.667,-11.083 -35.042,-17.208 -37.167,-18.458c-24.791,-14.459 -35.083,-35.709 -30.875,-63.709c2.334,-15.666 11.167,-28.083 26.5,-37.291c28,-16.834 69.459,-10.5 96.292,7.875c5.875,4.041 7,9.125 3.458,15.291l-7,12.084c-3.25,5.625 -10.333,7.708 -16.125,4.708c-15.458,-8 -30.375,-17.25 -46.666,-13.292c-17.334,4.209 -23,21.167 -10.834,35.125c5.459,6.25 18.834,13.209 29.25,17.25c34.084,13.209 64.417,33.417 61.125,71.917c-3.125,36.958 -36.583,55.792 -72.333,55c-21.542,-0.417 -41.125,-7 -58.833,-19.75c-6.167,-4.458 -7.375,-10 -3.542,-16.625l6.292,-10.833c4.333,-7.5 10.125,-8.917 17.458,-4.25c13.542,8.666 30,17.75 46.375,15.25c18.208,-2.75 27.917,-21.334 15.625,-36.625Z" style="fill:#5c6670;fill-rule:nonzero;"/><path d="M4042,1330.25c-1.5,0 -2.25,0.75 -2.25,2.292l-0.042,43.375c0,1.458 0.75,2.166 2.209,2.166l66.666,0.042c6.834,0 10.25,3.417 10.25,10.292l0,16.916c0,6.875 -3.458,10.292 -10.333,10.292l-66.667,0c-1.208,0 -2.166,0.958 -2.166,2.125l-0.042,47.75c0,0.583 0.542,1.083 1.167,1.125l83.333,0.042c6.125,-0 9.167,3.041 9.167,9.166l-0,17.959c-0,6.208 -3.125,9.333 -9.334,9.333l-115.833,-0.042c-4.583,0 -8.292,-3.708 -8.292,-8.291l0.125,-191.75c0,-6.209 3.084,-9.292 9.25,-9.292l114.5,0.042c6.542,0.041 9.792,3.291 9.792,9.833l-0,16.958c-0,6.459 -3.25,9.709 -9.792,9.709l-81.708,-0.042Z" style="fill:#5c6670;fill-rule:nonzero;"/><path d="M4235.96,1503.25c-4.666,0 -8.875,-0.083 -12.625,-0.333c-4.25,-0.25 -7.583,-3.792 -7.583,-8.084l-0,-162.541c-0,-1.375 -0.667,-2.084 -2.083,-2.084l-38.709,0c-6.958,0 -10.416,-3.458 -10.416,-10.416l-0,-15.792c-0,-6.875 3.416,-10.333 10.291,-10.333c21,0.041 41.375,0.041 61.125,0.041l61.167,0c6.875,0 10.292,3.417 10.292,10.292l-0,15.792c-0,6.958 -3.459,10.416 -10.417,10.416l-38.708,0c-1.417,0 -2.084,0.709 -2.125,2.084l-0,162.541c-0,4.292 -3.334,7.834 -7.584,8.084c-3.75,0.25 -7.958,0.333 -12.625,0.333Z" style="fill:#5c6670;fill-rule:nonzero;"/><path d="M4426.58,1506.25c-49.375,-0.125 -85,-38.583 -83.666,-88c0.333,-12.292 0.583,-50.583 0.791,-114.917c0.042,-6.666 3.375,-9.958 10,-9.958l20.834,0.083c6.625,0 9.916,3.334 9.875,9.917c-0.209,36.75 -0.292,73.375 -0.334,109.875c0,11.583 0.875,19.875 2.625,24.875c5.792,16.75 22.125,28.333 39.959,28.417c17.875,0.041 34.25,-11.459 40.166,-28.167c1.792,-5 2.709,-13.292 2.792,-24.875c0.167,-36.5 0.292,-73.083 0.333,-109.875c0,-6.583 3.292,-9.875 9.917,-9.833l20.833,0.041c6.667,0.042 9.959,3.375 9.959,10c-0.209,64.334 -0.167,102.667 0.083,114.917c1.042,49.417 -34.792,87.667 -84.167,87.5Z" style="fill:#5c6670;fill-rule:nonzero;"/><path d="M4569.62,1302.83c0,-5 4.042,-9.041 9.042,-9.083l67.416,-0.083c58,-0.125 105.125,46.291 105.209,103.666l-0,1.917c0.083,57.375 -46.834,103.958 -104.875,104.083l-67.417,0.084c-4.958,0.041 -9.042,-4 -9.042,-9l-0.333,-191.584Zm39.792,30.459l-0,130.25c-0,1.25 1,2.25 2.25,2.25l31.666,-0c36.459,-0 66,-29.875 66,-66.709l0,-1.333c0,-36.833 -29.541,-66.708 -66,-66.708l-31.666,-0c-1.25,-0 -2.25,1 -2.25,2.25Z" style="fill:#5c6670;fill-rule:nonzero;"/><path d="M4840.88,1330.21c-1.5,0 -2.25,0.792 -2.25,2.292l0.083,43.458c0,1.459 0.75,2.167 2.209,2.167l66.791,-0.083c6.792,-0.042 10.25,3.375 10.25,10.25l0,16.958c0.042,6.875 -3.416,10.333 -10.291,10.333l-66.792,0.125c-1.167,0 -2.167,0.959 -2.167,2.167l0.084,47.792c-0,0.625 0.541,1.125 1.166,1.125l83.459,-0.167c6.125,0 9.208,3.083 9.208,9.208l0.042,17.959c-0,6.25 -3.125,9.375 -9.334,9.375l-116,0.208c-4.583,0 -8.291,-3.708 -8.291,-8.292l-0.334,-192.041c0,-6.167 3.084,-9.292 9.292,-9.292l114.625,-0.208c6.542,-0 9.833,3.291 9.833,9.833l0.042,16.958c0,6.5 -3.25,9.75 -9.75,9.75l-81.875,0.125Z" style="fill:#5c6670;fill-rule:nonzero;"/><path d="M5262.5,1302.17l0,192.666c0,4.646 -3.771,8.417 -8.417,8.417l-22.75,0c-4.645,0 -8.416,-3.771 -8.416,-8.417l-0,-192.666c-0,-4.646 3.771,-8.417 8.416,-8.417l22.75,0c4.646,0 8.417,3.771 8.417,8.417Z" style="fill:#5c6670;"/><path d="M5610.46,1503.12c-4.666,0 -8.875,-0.083 -12.625,-0.333c-4.25,-0.25 -7.541,-3.792 -7.541,-8.042l-0.209,-162.417c0,-1.375 -0.708,-2.083 -2.083,-2.083l-38.708,0.042c-6.917,0.041 -10.417,-3.459 -10.417,-10.375l-0,-15.792c-0,-6.875 3.417,-10.292 10.292,-10.292c20.958,0 41.333,-0.041 61.083,-0.041c19.708,-0.042 40.083,-0.084 61.083,-0.084c6.875,-0.041 10.292,3.417 10.292,10.25l0.042,15.792c-0,6.958 -3.5,10.417 -10.417,10.417l-38.708,0.041c-1.375,0 -2.084,0.709 -2.084,2.084l0.167,162.416c0.042,4.25 -3.292,7.792 -7.542,8.084c-3.75,0.208 -7.958,0.333 -12.625,0.333Z" style="fill:#5c6670;fill-rule:nonzero;"/><path d="M5758.96,1332.46l0,43.459c0,1.458 0.75,2.166 2.209,2.166l66.791,0c6.834,0 10.25,3.417 10.25,10.292l0,16.958c0,6.875 -3.458,10.334 -10.333,10.334l-66.792,-0c-1.208,-0 -2.166,0.958 -2.166,2.166l-0,47.792c-0,0.625 0.541,1.125 1.166,1.125l83.459,0c6.125,0 9.208,3.083 9.208,9.208l0,17.959c0,6.25 -3.125,9.375 -9.333,9.375l-116.042,-0c-4.583,-0 -8.292,-3.709 -8.292,-8.292l0,-192.083c0,-6.209 3.084,-9.292 9.292,-9.292l114.667,0c6.541,0 9.833,3.292 9.833,9.833l0,16.959c0,6.5 -3.25,9.75 -9.792,9.75l-81.875,-0c-1.5,-0 -2.25,0.75 -2.25,2.291Z" style="fill:#5c6670;fill-rule:nonzero;"/><path d="M5944,1424.42l0,68.791c0,6.709 -3.333,10.042 -10.042,10.042l-19.333,0c-7.042,0 -10.542,-3.5 -10.542,-10.542l0,-190.583c0,-4.583 3.709,-8.292 8.292,-8.333c32.208,-0.042 52.708,-0.084 61.542,-0.167c23.458,-0.208 39.25,1.417 47.375,4.875c54.916,23.417 52.208,97 -2.167,119.542c-0.875,0.375 -1.292,1.416 -0.833,2.25l39.916,74.041c2.209,4.084 -0.75,9.084 -5.416,9.084l-26.875,-0c-5.959,-0 -10.292,-2.667 -13,-8l-35.709,-71.459c-0.708,-1.375 -1.791,-2.041 -3.333,-2.041l-27.417,-0c-1.625,-0 -2.458,0.833 -2.458,2.5Zm0.875,-92.334l-0.167,54.417c0,1.083 0.875,1.958 1.959,1.958l43.458,0.167c17.042,0.042 30.958,-12.667 31,-28.417l0,-1.333c0.042,-15.75 -13.75,-28.542 -30.833,-28.583l-43.459,-0.167c-1.083,0 -1.958,0.875 -1.958,1.958Z" style="fill:#5c6670;fill-rule:nonzero;"/><path d="M6594.29,1503.25c-4.667,0 -8.875,-0.125 -12.625,-0.333c-4.25,-0.292 -7.584,-3.834 -7.584,-8.084l0.042,-162.541c-0,-1.375 -0.708,-2.084 -2.083,-2.084l-38.709,0c-6.958,0 -10.458,-3.5 -10.416,-10.416l-0,-15.834c-0,-6.833 3.416,-10.291 10.291,-10.291c21,0.041 41.375,0.041 61.125,0.083c19.75,-0.042 40.167,-0.042 61.167,-0.042c6.833,0 10.292,3.417 10.292,10.292l-0,15.792c-0,6.958 -3.5,10.416 -10.417,10.416l-38.75,0c-1.375,0 -2.083,0.709 -2.083,2.084l-0.042,162.541c-0,4.292 -3.333,7.834 -7.583,8.084c-3.75,0.208 -7.959,0.333 -12.625,0.333Z" style="fill:#5c6670;fill-rule:nonzero;"/><path d="M6742.79,1302.25l-0,192.583c-0,4.669 -3.79,8.459 -8.459,8.459l-22.75,-0c-4.668,-0 -8.458,-3.79 -8.458,-8.459l0,-192.583c0,-4.668 3.79,-8.458 8.458,-8.458l22.75,-0c4.669,-0 8.459,3.79 8.459,8.458Z" style="fill:#5c6670;"/><path d="M7543.38,1466.62l69.542,0c6.541,0 9.833,3.292 9.833,9.875l0,16.333c0,6.875 -3.458,10.334 -10.333,10.334l-103.084,-0c-4.666,-0 -8.416,-3.75 -8.416,-8.417l-0,-191.042c-0,-6.666 3.333,-10 10,-10l19.541,0c6.917,0 10.375,3.459 10.375,10.375l0,160c0,1.709 0.834,2.542 2.542,2.542Z" style="fill:#5c6670;fill-rule:nonzero;"/><path d="M7701.38,1330.25c-1.5,0 -2.25,0.792 -2.25,2.292l0.042,43.458c0.041,1.417 0.75,2.125 2.25,2.125l66.75,-0.083c6.791,-0 10.25,3.416 10.25,10.25l-0,16.958c0.041,6.875 -3.417,10.333 -10.292,10.333l-66.75,0.125c-1.208,0 -2.167,0.959 -2.167,2.167l0.084,47.75c-0,0.625 0.5,1.125 1.166,1.125l83.417,-0.125c6.125,0 9.208,3.042 9.208,9.208l0,17.917c0.042,6.25 -3.083,9.375 -9.291,9.417l-115.959,0.166c-4.583,0 -8.291,-3.708 -8.333,-8.291l-0.292,-191.959c0,-6.166 3.084,-9.291 9.292,-9.291l114.583,-0.167c6.542,-0.042 9.834,3.25 9.834,9.792l0.041,16.958c0,6.5 -3.25,9.75 -9.75,9.75l-81.833,0.125Z" style="fill:#5c6670;fill-rule:nonzero;"/><path d="M1246.17,1819c-37.209,0 -57.709,0.083 -61.459,0.25c-1.875,0.083 -3,0.542 -3.375,1.417l-17.666,38.916c-2.625,5.709 -8.334,9.375 -14.584,9.375l-55.875,0.042c-6.291,0 -10.5,-6.5 -7.916,-12.208c52,-115.084 101.833,-224.834 149.5,-329.292c1.75,-3.875 5.541,-5.833 11.291,-5.875c5.792,0 9.542,1.958 11.334,5.875c47.75,104.458 97.625,214.167 149.666,329.208c2.584,5.709 -1.625,12.209 -7.916,12.209l-55.875,-0c-6.25,-0 -11.959,-3.667 -14.584,-9.375l-17.666,-38.917c-0.417,-0.875 -1.542,-1.333 -3.417,-1.417c-3.75,-0.166 -24.25,-0.208 -61.458,-0.208Zm-36.917,-68.208c-0.458,1.125 0.375,2.291 1.542,2.291l70.625,-0.125c1.166,0 1.958,-1.208 1.541,-2.291l-35.458,-90.209c-0.583,-1.416 -2.583,-1.416 -3.125,0l-35.125,90.334Z" style="fill:#fff;fill-rule:nonzero;"/><path d="M2357.08,1818.88c-37.208,0 -57.666,0.083 -61.416,0.208c-1.917,0.084 -3.042,0.584 -3.417,1.417l-17.667,38.958c-2.625,5.709 -8.333,9.375 -14.583,9.375l-55.833,0c-6.292,0 -10.5,-6.5 -7.917,-12.208c52,-115.042 101.833,-224.75 149.5,-329.167c1.792,-3.916 5.542,-5.875 11.333,-5.875c5.75,0 9.5,1.959 11.292,5.875c47.708,104.417 97.542,214.125 149.542,329.125c2.583,5.75 -1.625,12.209 -7.917,12.209l-55.833,-0c-6.25,-0 -11.959,-3.667 -14.584,-9.375l-17.666,-38.917c-0.375,-0.833 -1.542,-1.333 -3.417,-1.417c-3.75,-0.166 -24.208,-0.208 -61.417,-0.208Zm-37.083,-67.458c-0.333,0.833 0.292,1.75 1.208,1.75l71.792,-0.25c0.917,-0 1.542,-0.917 1.208,-1.75l-36.208,-91.542c-0.458,-1.125 -2,-1.083 -2.417,0l-35.583,91.792Z" style="fill:#fff;fill-rule:nonzero;"/><path d="M575.958,1749.42c0,-1.667 -0.833,-2.5 -2.5,-2.5l-29.458,-0c-3.542,-0 -6.417,-2.875 -6.417,-6.417l0,-51.917c0,-4.125 3.292,-7.416 7.417,-7.416l97.792,-0.042c5.083,-0 9.25,4.125 9.291,9.25c0.292,44.667 0.292,92.208 -0.083,142.625c-0.083,8.75 -8.833,12.208 -15.958,15.625c-86.417,41.542 -193.25,33.667 -250.167,-52.25c-21.125,-31.792 -30.167,-68.375 -27.083,-109.792c4.75,-65.375 47.166,-121.083 107.291,-145.041c61.959,-24.667 129.917,-10 181.125,33.208c4,3.375 4.334,9.375 0.792,13.167c-14.75,15.833 -26.792,28.666 -36.083,38.5c-2,2.166 -5.584,3.083 -10.709,2.75c-3.041,-0.167 -6.25,-1.542 -9.625,-4.042c-23.458,-17.25 -49.208,-22.75 -77.333,-16.5c-17.75,3.917 -32.833,12.333 -45.333,25.208c-51.417,53.084 -29.084,136.917 40.875,158.584c18.416,5.666 39.75,4.75 64,-2.792c1.458,-0.5 2.166,-1.458 2.166,-2.958l0,-37.25Z" style="fill:#fff;fill-rule:nonzero;"/><path d="M957.5,1735.38l64.458,119.625c3.375,6.25 -1.166,13.875 -8.291,13.875l-62.5,0c-4.917,0 -9.375,-2.792 -11.584,-7.167l-60.541,-121.083c-0.625,-1.292 -1.667,-1.917 -3.125,-1.917l-34.292,0c-1.292,0 -1.958,0.667 -1.958,1.959l-0,118.666c-0,5.25 -4.292,9.542 -9.584,9.542l-57.208,0c-6.292,0 -9.458,-3.167 -9.458,-9.458l-0,-316.459c-0,-5.875 2.916,-8.833 8.791,-8.791c55.542,0.125 100.167,0.083 133.792,-0.042c23.542,-0.083 40.208,1.583 50,5.042c47.708,16.708 76.333,62.625 69.417,112.666c-5.25,38.167 -31.667,64.959 -67.209,81.417c-0.791,0.375 -1.125,1.333 -0.708,2.125Zm-117.833,-130.125l-0,68.667c-0,1.166 0.916,2.083 2.083,2.083l72.292,0c20.541,0 37.208,-16.167 37.208,-36.083l0,-0.667c0,-19.917 -16.667,-36.083 -37.208,-36.083l-72.292,-0c-1.167,-0 -2.083,0.916 -2.083,2.083Z" style="fill:#fff;fill-rule:nonzero;"/><path d="M1483.29,1543.33c-0,-5.25 4.291,-9.541 9.541,-9.541l114.584,-0c93.666,-0 169.625,75.041 169.625,167.625c-0,92.583 -75.959,167.625 -169.625,167.625l-114.584,-0c-5.25,-0 -9.541,-4.292 -9.541,-9.542l-0,-316.167Zm75.25,64l-0.334,187.25c0,1.292 1.042,2.334 2.334,2.334l42.291,0.083c51.584,0.083 93.459,-41.625 93.542,-93.208l0,-5.167c0.083,-51.583 -41.625,-93.458 -93.208,-93.542l-42.292,-0.083c-1.292,-0 -2.333,1.042 -2.333,2.333Z" style="fill:#fff;fill-rule:nonzero;"/><path d="M2003.04,1795.79c13.333,-0 25.125,-3.875 35.333,-11.625c9.542,-7.209 16.167,-16.375 19.792,-27.5c2.125,-6.459 3.208,-17.25 3.208,-32.417c-0.042,-90.042 0.042,-150.667 0.167,-181.833c0.041,-4.5 3.708,-8.167 8.208,-8.167l61.583,0c4.584,0 8.292,3.708 8.292,8.292c0.125,38.083 0.125,97.916 -0,179.5c-0.042,26.375 -2,45.5 -5.875,57.291c-18.708,56.584 -70.708,94.334 -130.75,94.292c-60,-0.042 -112,-37.833 -130.625,-94.417c-3.875,-11.791 -5.833,-30.916 -5.833,-57.291c-0.042,-81.584 -0,-141.417 0.166,-179.5c0,-4.584 3.709,-8.292 8.292,-8.292l61.583,0.083c4.5,0 8.167,3.625 8.209,8.167c0.083,31.167 0.083,91.75 -0,181.833c-0.042,15.167 1.041,25.959 3.166,32.417c3.625,11.125 10.209,20.292 19.75,27.542c10.209,7.75 22,11.625 35.334,11.625Z" style="fill:#fff;fill-rule:nonzero;"/><path d="M2651,1534.21c66.417,-0.041 102.292,0 107.625,0.084c5.208,0.125 7.833,2.791 7.833,8l0,53.125c0,6.625 -3.291,9.916 -9.916,9.916l-64.5,0c-1.75,0 -2.625,0.875 -2.625,2.625l-0,252.209c-0,4.5 -3.584,8.208 -8.084,8.375c-9.708,0.333 -19.75,0.5 -30.166,0.5c-10.417,-0 -20.459,-0.167 -30.167,-0.5c-4.5,-0.125 -8.083,-3.834 -8.083,-8.334l-0.25,-252.208c-0,-1.75 -0.875,-2.625 -2.625,-2.625l-64.5,0.042c-6.584,-0 -9.917,-3.292 -9.917,-9.917l-0.042,-53.125c0,-5.208 2.584,-7.875 7.792,-7.958c5.375,-0.125 41.25,-0.209 107.625,-0.209Z" style="fill:#fff;fill-rule:nonzero;"/><path d="M2925.46,1605.33c-1.875,0 -2.791,0.959 -2.791,2.792l-0,53.458c-0,1.25 0.625,1.917 1.875,1.917l107.208,-0.042c4.75,0 8.625,3.875 8.625,8.625l0,52.75c0,5.334 -4.292,9.667 -9.625,9.667l-105.792,0c-1.541,0 -2.333,0.792 -2.333,2.333l0.042,58.667c-0,1.542 0.791,2.333 2.375,2.333l130.416,-0.041c4.625,-0 8.417,3.791 8.417,8.458l0,53.25c0,5.208 -4.25,9.458 -9.5,9.458l-197.458,0.042c-5.542,0 -10.084,-4.5 -10.084,-10.042l-0.041,-316.125c-0,-4.708 3.833,-8.541 8.541,-8.541l200.084,-0.042c4.625,-0 8.375,3.792 8.375,8.417l0.041,51.625c0,7.333 -3.666,11.041 -11,11.041l-127.375,0Z" style="fill:#fff;fill-rule:nonzero;"/><path d="M5262.62,1566.12l4.917,11.125c1.875,4.25 -0.084,9.208 -4.334,11.125l-47.416,20.917c-3.959,1.708 -8.542,0.208 -10.709,-3.5l-3.25,-5.625c-2.333,-4.042 -0.958,-9.167 3.084,-11.5l45.791,-26.417c4.334,-2.542 9.875,-0.708 11.917,3.875Z" style="fill:#5c6670;fill-rule:nonzero;"/><path d="M839.667,1605.25c-0,-1.167 0.916,-2.083 2.083,-2.083l72.292,-0c20.541,-0 37.208,16.166 37.208,36.083l0,0.667c0,19.916 -16.667,36.083 -37.208,36.083l-72.292,0c-1.167,0 -2.083,-0.917 -2.083,-2.083l-0,-68.667Z" style="fill:#e41b21;fill-rule:nonzero;"/><path d="M1558.54,1607.33c-0,-1.291 1.041,-2.333 2.333,-2.333l42.292,0.083c51.583,0.084 93.291,41.959 93.208,93.542l-0,5.167c-0.083,51.583 -41.958,93.291 -93.542,93.208l-42.291,-0.083c-1.292,-0 -2.334,-1.042 -2.334,-2.334l0.334,-187.25Z" style="fill:#e41b21;fill-rule:nonzero;"/><path d="M6104.33,1733.92c0,59.666 -48.333,108 -108,108c-59.666,-0 -108,-48.334 -108,-108c0,-59.667 48.334,-108 108,-108c59.667,-0 108,48.333 108,108Zm-40.333,0.041c-0,-37.375 -30.292,-67.666 -67.667,-67.666c-37.375,-0 -67.666,30.291 -67.666,67.666c-0,37.375 30.291,67.667 67.666,67.667c37.375,0 67.667,-30.292 67.667,-67.667Z" style="fill:#5c6670;fill-rule:nonzero;"/><path d="M6864.12,1726.12c-10.583,23.542 -26.667,59.708 -48.208,108.458c-4.459,10.125 -16.084,9.5 -20.334,-0.25c-12.708,-28.958 -28.875,-64.875 -48.5,-107.75c-1.541,-3.291 -2.541,-3.166 -3.083,0.417l-15.667,103.792c-0.791,5.208 -3.833,7.833 -9.125,7.833l-23.416,0c-5.584,0 -7.875,-2.75 -6.917,-8.25l34.875,-196.917c0.625,-3.375 3.125,-6.125 6.458,-7.041c6.459,-1.75 10,1.916 12.667,7.583c20,43.042 40.625,87.292 61.917,132.75c0.666,1.458 2.708,1.458 3.375,-0l61.708,-136.167c0.958,-2.166 2.917,-3.75 5.25,-4.25c7,-1.541 11.167,0.625 12.542,6.584c1.791,7.916 13.583,74.083 35.333,198.541c0.833,4.792 -1.167,7.209 -6.042,7.209l-24.5,-0c-4.666,-0 -7.416,-2.292 -8.208,-6.875l-18.458,-105.459c-0.334,-1.916 -0.875,-2 -1.667,-0.208Z" style="fill:#5c6670;fill-rule:nonzero;"/><path d="M7197.75,1707.92c-1.25,-1.375 -1.917,-1.125 -1.917,0.75l-0.083,119.458c-0.042,6.917 -3.5,10.375 -10.375,10.375l-18.875,-0.042c-6.833,0 -10.25,-3.416 -10.25,-10.25l0.167,-183.333c0.041,-22.583 7.791,-25.667 23.25,-9.167l111.625,118.792c1.458,1.583 2.208,1.25 2.208,-1l0.083,-114.125c0,-6.667 3.375,-10 10.042,-10l19.708,0.042c6.667,-0 10,3.333 10,10c-0.083,58.583 -0.125,122.291 -0.166,191.083c-0,4.292 -1.084,7.375 -3.25,9.167c-4.334,3.708 -10,2.75 -13.75,-1.459c-48.875,-54.125 -88.334,-97.541 -118.417,-130.291Z" style="fill:#5c6670;fill-rule:nonzero;"/><path d="M4042,1665.71c-1.5,0 -2.25,0.75 -2.25,2.292l0,43.375c0,1.417 0.708,2.125 2.208,2.125l66.625,0.042c6.834,-0 10.25,3.458 10.25,10.291l0,16.917c-0.041,6.875 -3.458,10.333 -10.333,10.292l-66.667,-0c-1.166,-0 -2.166,0.958 -2.166,2.125l-0,47.708c-0,0.625 0.5,1.125 1.166,1.125l83.25,0.042c6.125,-0 9.209,3.083 9.209,9.208l-0,17.917c-0,6.25 -3.125,9.333 -9.334,9.333l-115.791,-0.042c-4.584,0 -8.292,-3.708 -8.292,-8.291l0.125,-191.667c0,-6.208 3.083,-9.292 9.25,-9.292l114.458,0.084c6.542,-0 9.792,3.25 9.792,9.791l-0,16.917c-0,6.5 -3.25,9.75 -9.792,9.75l-81.708,-0.042Z" style="fill:#5c6670;fill-rule:nonzero;"/><path d="M4235.92,1838.71c-4.667,0 -8.875,-0.125 -12.625,-0.375c-4.25,-0.25 -7.584,-3.791 -7.584,-8.083l0.042,-162.542c-0,-1.375 -0.708,-2.083 -2.083,-2.083l-38.75,0c-6.959,0 -10.417,-3.5 -10.417,-10.417l-0,-15.833c-0,-6.833 3.458,-10.292 10.333,-10.292c21,0.042 41.375,0.042 61.125,0.042l61.167,0c6.875,0 10.292,3.417 10.292,10.292l-0,15.791c-0,6.959 -3.459,10.417 -10.417,10.417l-38.75,0c-1.375,0 -2.083,0.708 -2.083,2.083l-0.042,162.584c-0,4.25 -3.292,7.791 -7.583,8.083c-3.75,0.208 -7.959,0.333 -12.625,0.333Z" style="fill:#5c6670;fill-rule:nonzero;"/><path d="M4414.75,1637.62c0,-4.792 3.917,-8.708 8.708,-8.667l67.709,0.084c58.416,0.125 105.666,46.916 105.583,104.583l0,0.917c-0.083,57.625 -47.542,104.291 -105.917,104.166l-67.708,-0.083c-4.833,-0.042 -8.708,-3.917 -8.708,-8.75l0.333,-192.25Zm39.417,30.667l-0,131c-0,1.041 0.833,1.875 1.875,1.875l32.666,-0c36.209,-0 65.542,-29.292 65.542,-65.459l0,-3.833c0,-36.167 -29.333,-65.458 -65.542,-65.458l-32.666,-0c-1.042,-0 -1.875,0.833 -1.875,1.875Z" style="fill:#5c6670;fill-rule:nonzero;"/><path d="M4724.96,1841.67c-49.333,-0 -85,-38.334 -83.791,-87.709c0.291,-12.25 0.458,-50.5 0.458,-114.791c0,-6.625 3.333,-9.959 9.958,-9.959l20.834,0c6.625,0 9.916,3.292 9.875,9.875c-0.084,36.75 -0.084,73.334 -0.042,109.75c0.042,11.584 0.917,19.875 2.708,24.875c5.834,16.709 22.167,28.25 40,28.25c17.875,0 34.209,-11.541 40.042,-28.25c1.792,-5 2.667,-13.25 2.708,-24.833c0.084,-36.458 0.084,-73.042 0.042,-109.75c-0.042,-6.583 3.25,-9.875 9.875,-9.875l20.792,0c6.666,0 10,3.333 10,9.958c-0.042,64.292 0.083,102.542 0.375,114.792c1.208,49.375 -34.5,87.667 -83.834,87.667Z" style="fill:#5c6670;fill-rule:nonzero;"/><path d="M4936.62,1637.88c0,-4.958 4.042,-8.958 8.958,-8.917l67.125,0.084c58.459,0.125 105.75,46.958 105.667,104.625l0,0.916c-0.083,57.667 -47.583,104.334 -106,104.209l-67.125,-0.084c-4.958,-0.041 -8.958,-4.041 -8.958,-9l0.333,-191.833Zm39.583,30l-0.25,131.75c0,0.792 0.625,1.417 1.417,1.417l32.917,0.041c36.291,0.084 65.708,-29.291 65.791,-65.625l0,-3.083c0.084,-36.292 -29.291,-65.792 -65.541,-65.875l-32.917,-0.042c-0.792,0 -1.417,0.625 -1.417,1.417Z" style="fill:#5c6670;fill-rule:nonzero;"/><path d="M5208.08,1665.58c-1.5,0 -2.25,0.792 -2.25,2.292l0,43.458c0,1.459 0.75,2.167 2.209,2.167l66.791,0c6.834,0 10.25,3.458 10.25,10.292l0,16.958c0,6.917 -3.458,10.333 -10.333,10.333l-66.792,0c-1.208,0 -2.166,0.959 -2.166,2.167l-0,47.792c-0,0.625 0.5,1.125 1.166,1.125l83.459,-0c6.125,-0 9.208,3.083 9.208,9.208l0,17.958c0,6.25 -3.125,9.375 -9.333,9.375l-116.042,0c-4.583,0 -8.292,-3.708 -8.292,-8.291l0,-192.084c0,-6.166 3.084,-9.291 9.292,-9.291l114.667,-0c6.541,-0 9.833,3.291 9.833,9.833l0,16.958c0,6.5 -3.292,9.75 -9.792,9.75l-81.875,0Z" style="fill:#5c6670;fill-rule:nonzero;"/><path d="M5428.5,1841.62c-3.667,0 -6.458,-2.042 -8.375,-6.167c-33.25,-72.041 -63.417,-137.916 -90.542,-197.625c-2.666,-5.791 -0.791,-8.666 5.542,-8.666l27.167,0.041c4.916,0 8.416,2.292 10.375,6.792c17.916,40.708 36.25,81.917 55.041,123.583c0.084,0.209 0.375,0.292 0.875,0.292c0.417,0 0.667,-0.083 0.75,-0.292c18.834,-41.666 37.209,-82.833 55.209,-123.5c2,-4.5 5.458,-6.791 10.375,-6.791l27.208,0.041c6.333,0 8.167,2.875 5.5,8.625c-27.208,59.709 -57.458,125.5 -90.792,197.5c-1.916,4.125 -4.708,6.167 -8.333,6.167Z" style="fill:#5c6670;fill-rule:nonzero;"/><path d="M5605.46,1665.62c-1.5,0.042 -2.25,0.792 -2.25,2.333l0.042,43.417c-0,1.417 0.75,2.167 2.208,2.167l66.75,-0.084c6.834,-0.041 10.25,3.417 10.25,10.25l0.042,16.959c-0,6.875 -3.458,10.333 -10.333,10.333l-66.709,0.083c-1.208,0 -2.166,0.959 -2.166,2.167l0.041,47.75c0,0.625 0.542,1.125 1.167,1.125l83.375,-0.125c6.167,0 9.208,3.083 9.25,9.208l-0,17.959c-0,6.25 -3.083,9.375 -9.292,9.375l-115.958,0.125c-4.583,-0 -8.292,-3.709 -8.292,-8.25l-0.25,-191.959c0,-6.166 3.084,-9.291 9.292,-9.291l114.542,-0.125c6.583,-0 9.833,3.25 9.833,9.791l0.042,16.959c-0,6.5 -3.25,9.75 -9.792,9.75l-81.792,0.083Z" style="fill:#5c6670;fill-rule:nonzero;"/><path d="M5788.62,1799.42c0,1.708 0.833,2.541 2.542,2.541l69.458,0.125c6.542,0.042 9.833,3.334 9.833,9.875l-0.041,16.334c-0,6.875 -3.459,10.333 -10.334,10.333l-103,-0.208c-4.666,-0 -8.416,-3.75 -8.416,-8.417l0.333,-190.875c0,-6.667 3.333,-10 10,-10l19.542,0.042c6.916,0.041 10.333,3.5 10.333,10.375l-0.25,159.875Z" style="fill:#5c6670;fill-rule:nonzero;"/><path d="M6193.83,1762.75c-1.5,0 -2.25,0.792 -2.25,2.292l0.084,63.291c-0,6.959 -3.5,10.459 -10.459,10.459l-18.666,0.041c-7,0 -10.459,-3.5 -10.5,-10.458l-0.25,-190.667c-0,-4.583 3.75,-8.333 8.333,-8.291c16.167,0.041 32,-0.084 47.542,-0.417c21.583,-0.458 36.958,1.25 46.125,5.167c68.958,29.416 46.625,130 -28.167,128.625c-6.875,-0.125 -17.458,-0.125 -31.792,-0.042Zm-2.375,-94.083l0.417,55.333c0,1.125 0.875,2 2,2l29.875,-0.208c17.5,-0.125 31.625,-13 31.5,-28.792l0,-2.167c-0.125,-15.791 -14.417,-28.5 -31.917,-28.375l-29.875,0.209c-1.083,-0 -2,0.916 -2,2Z" style="fill:#5c6670;fill-rule:nonzero;"/><path d="M6375,1764.88l0,63.292c0,6.958 -3.5,10.458 -10.458,10.458l-18.667,0c-6.958,0 -10.458,-3.5 -10.458,-10.458l-0,-190.625c-0,-4.584 3.75,-8.334 8.333,-8.292c16.167,0.083 32,-0.042 47.5,-0.333c21.625,-0.459 37,1.291 46.125,5.208c68.917,29.5 46.458,130.042 -28.333,128.583c-6.875,-0.125 -17.459,-0.166 -31.792,-0.083c-1.5,0 -2.25,0.75 -2.25,2.25Zm-0.083,-96.583l0.166,55.916c0,0.959 0.792,1.75 1.75,1.75l29.209,-0.125c18.375,-0.041 33.166,-13.166 33.125,-29.291l-0,-1.084c-0.042,-16.083 -14.959,-29.083 -33.292,-29.041l-29.208,0.125c-1,-0 -1.75,0.75 -1.75,1.75Z" style="fill:#5c6670;fill-rule:nonzero;"/><path d="M6560.67,1665.71c-1.5,0 -2.25,0.75 -2.25,2.292l0.083,43.375c0,1.458 0.708,2.167 2.167,2.167l66.708,-0.084c6.833,0 10.25,3.417 10.25,10.292l0,16.917c0,6.875 -3.417,10.333 -10.292,10.333l-66.708,0.083c-1.167,0 -2.125,0.959 -2.125,2.125l0.042,47.75c-0,0.625 0.5,1.125 1.166,1.125l83.292,-0.125c6.167,0 9.208,3.084 9.208,9.209l0.042,17.916c-0,6.25 -3.125,9.375 -9.333,9.375l-115.834,0.125c-4.583,0 -8.291,-3.708 -8.291,-8.291l-0.209,-191.75c0,-6.167 3.084,-9.292 9.292,-9.292l114.458,-0.125c6.542,0 9.834,3.292 9.834,9.833l-0,16.917c0.041,6.5 -3.209,9.75 -9.75,9.75l-81.75,0.083Z" style="fill:#5c6670;fill-rule:nonzero;"/><path d="M7013.29,1665.58c-1.5,0 -2.25,0.792 -2.25,2.292l-0,43.458c-0,1.459 0.708,2.167 2.208,2.167l66.75,0c6.833,0 10.25,3.458 10.25,10.292l0,16.958c0,6.875 -3.458,10.333 -10.333,10.333l-66.792,0c-1.167,0 -2.167,0.959 -2.167,2.167l0,47.792c0,0.583 0.542,1.125 1.167,1.125l83.458,-0c6.125,-0 9.209,3.083 9.209,9.208l-0,17.958c-0,6.25 -3.125,9.375 -9.334,9.375l-116.041,-0.041c-4.584,-0 -8.292,-3.709 -8.292,-8.292l0.042,-192.042c-0,-6.166 3.083,-9.291 9.291,-9.291l114.625,0.041c6.584,0 9.834,3.292 9.834,9.834l-0,16.958c-0,6.5 -3.25,9.75 -9.792,9.75l-81.833,-0.042Z" style="fill:#5c6670;fill-rule:nonzero;"/><path d="M7442.12,1838.62c-4.667,0 -8.875,-0.125 -12.625,-0.375c-4.25,-0.25 -7.583,-3.792 -7.583,-8.083l0.125,-162.459c-0,-1.375 -0.709,-2.083 -2.084,-2.083l-38.708,-0.042c-6.958,0 -10.417,-3.458 -10.417,-10.416l0,-15.792c0,-6.875 3.459,-10.292 10.334,-10.292c21,0.042 41.375,0.042 61.125,0.084l61.125,-0c6.833,0.041 10.291,3.458 10.291,10.333l-0.041,15.792c-0,6.916 -3.459,10.416 -10.417,10.416l-38.708,-0.041c-1.417,-0 -2.084,0.666 -2.084,2.083l-0.166,162.458c-0,4.292 -3.292,7.834 -7.584,8.084c-3.75,0.208 -7.958,0.333 -12.583,0.333Z" style="fill:#5c6670;fill-rule:nonzero;"/><path d="M2320,1751.42l35.583,-91.792c0.417,-1.083 1.959,-1.125 2.417,0l36.208,91.542c0.334,0.833 -0.291,1.75 -1.208,1.75l-71.792,0.25c-0.916,-0 -1.541,-0.917 -1.208,-1.75Z" style="fill:#e41b21;fill-rule:nonzero;"/><path d="M1209.25,1750.79l35.125,-90.334c0.542,-1.416 2.542,-1.416 3.125,0l35.458,90.209c0.417,1.083 -0.375,2.291 -1.541,2.291l-70.625,0.125c-1.167,0 -2,-1.166 -1.542,-2.291Z" style="fill:#e41b21;fill-rule:nonzero;"/><path d="M775.833,2281.12c0.625,0.208 1.292,-0.292 1.292,-0.917l-0.208,-164.416c-0.042,-6.334 3.125,-9.542 9.458,-9.542l59.208,-0.083c4.709,-0 8.584,3.833 8.584,8.583c0.125,208.75 0.208,315.208 0.25,319.333c0.208,14.5 -19.042,13.625 -26.042,6.834c-26.583,-25.709 -87.5,-86.875 -182.75,-183.417c-2.125,-2.208 -3.208,-1.792 -3.208,1.292l0.25,172.125c-0,6.5 -3.25,9.75 -9.75,9.75l-59.417,0.083c-4.083,0 -7.375,-3.292 -7.375,-7.375l-0.458,-323.25c-0,-4.083 2.875,-7.625 6.875,-8.5c3.583,-0.75 7.25,-0.958 10.916,-0.583c3.292,0.375 6.417,1.958 9.334,4.791c108.333,104 168.791,162.084 181.416,174.209c0.542,0.5 1.084,0.875 1.625,1.083Z" style="fill:#fff;fill-rule:nonzero;"/><path d="M1084.71,2353.75c4.375,-18.917 -16.5,-36.667 -32.75,-44c-24,-10.792 -37.958,-17.25 -41.833,-19.292c-40.167,-21.083 -71.958,-56.791 -65.708,-105.5c7.458,-58.208 60.666,-86.916 116.333,-83.75c35.958,2.084 68.292,14.209 96.917,36.375c4.5,3.459 5.583,9.792 2.541,14.584c-9.708,15.291 -18.125,27.958 -25.208,38.041c-5.625,8 -13.333,9.084 -21.25,3.375c-20.125,-14.416 -64.125,-38.625 -85,-17.791c-22.333,22.291 8.167,44.875 28.292,53.75c39.833,17.583 78.625,32.125 100.458,70.083c20.958,36.417 13.375,82.042 -14.917,111.708c-21.708,22.792 -52.708,33.917 -84.25,34.125c-41.458,0.334 -81.583,-10.25 -112.083,-38.5c-2.958,-2.75 -3.667,-7.208 -1.625,-10.708l23.208,-40.167c3.709,-6.416 12.084,-8.375 18.25,-4.208c19.75,13.25 45.292,26.208 66.959,25.958c17.416,-0.208 27.958,-8.25 31.666,-24.083Z" style="fill:#fff;fill-rule:nonzero;"/><path d="M458.375,2114.83l0,317.084c0,4.829 -3.921,8.75 -8.75,8.75l-58.833,-0c-4.83,-0 -8.75,-3.921 -8.75,-8.75l-0,-317.084c-0,-4.829 3.92,-8.75 8.75,-8.75l58.833,0c4.829,0 8.75,3.921 8.75,8.75Z" style="fill:#fff;"/><path d="M1344.21,2440.75c-10.416,0 -20.458,-0.208 -30.166,-0.542c-4.5,-0.166 -8.042,-3.875 -8.042,-8.375l0.167,-252c-0,-1.75 -0.875,-2.625 -2.625,-2.625l-64.459,-0.041c-6.625,-0.042 -9.916,-3.334 -9.916,-9.917l0.041,-53.083c0,-5.25 2.625,-7.917 7.834,-8c5.333,-0.084 41.208,-0.125 107.541,-0.042c66.334,0.083 102.167,0.167 107.542,0.292c5.208,0.125 7.792,2.75 7.792,8l-0.084,53.083c0,6.583 -3.333,9.875 -9.916,9.875l-64.459,-0.083c-1.75,-0 -2.625,0.875 -2.625,2.625l-0.375,252c-0.041,4.5 -3.583,8.208 -8.083,8.333c-9.708,0.333 -19.792,0.5 -30.167,0.5Z" style="fill:#fff;fill-rule:nonzero;"/><path d="M1612.5,2114.46l0,317.75c0,4.646 -3.771,8.417 -8.417,8.417l-59.416,0c-4.646,0 -8.417,-3.771 -8.417,-8.417l-0,-317.75c-0,-4.645 3.771,-8.416 8.417,-8.416l59.416,-0c4.646,-0 8.417,3.771 8.417,8.416Z" style="fill:#fff;"/><path d="M1803.54,2440.75c-10.375,0 -20.459,-0.167 -30.167,-0.542c-4.458,-0.125 -8.042,-3.833 -8.042,-8.333l-0.083,-252c0,-1.75 -0.875,-2.625 -2.625,-2.625l-64.417,0c-6.625,0 -9.916,-3.292 -9.916,-9.875l-0.042,-53.083c-0,-5.209 2.625,-7.875 7.833,-8c5.334,-0.084 41.209,-0.167 107.542,-0.125c66.333,-0 102.167,0.041 107.5,0.166c5.208,0.125 7.833,2.792 7.833,8l-0.041,53.084c-0,6.583 -3.292,9.875 -9.917,9.875l-64.458,-0.042c-1.75,0 -2.625,0.875 -2.625,2.625l-0.125,252c-0.042,4.5 -3.584,8.208 -8.084,8.375c-9.708,0.333 -19.75,0.5 -30.166,0.5Z" style="fill:#fff;fill-rule:nonzero;"/><path d="M2129.04,2445.62c-60.042,-0.042 -112,-37.833 -130.625,-94.417c-3.917,-11.791 -5.834,-30.916 -5.875,-57.291c-0,-81.584 0.041,-141.417 0.166,-179.5c0.042,-4.584 3.75,-8.292 8.334,-8.292l61.583,0.042c4.5,-0 8.167,3.666 8.167,8.208c0.125,31.167 0.125,91.75 -0,181.792c-0,15.166 1.083,26 3.208,32.458c3.625,11.125 10.208,20.292 19.75,27.5c10.208,7.75 22,11.667 35.333,11.667c13.334,-0 25.125,-3.875 35.334,-11.625c9.541,-7.209 16.125,-16.375 19.791,-27.5c2.125,-6.459 3.209,-17.25 3.209,-32.417c-0.042,-90.083 -0,-150.667 0.166,-181.833c0,-4.542 3.667,-8.167 8.209,-8.167l61.583,0c4.583,0 8.292,3.708 8.292,8.292c0.083,38.083 0.083,97.916 -0,179.5c-0.042,26.375 -2,45.458 -5.917,57.291c-18.667,56.542 -70.667,94.292 -130.708,94.292Z" style="fill:#fff;fill-rule:nonzero;"/><path d="M2454.83,2440.67c-10.416,-0 -20.458,-0.167 -30.166,-0.5c-4.5,-0.167 -8.042,-3.834 -8.042,-8.375l-0.208,-251.917c-0,-1.75 -0.875,-2.625 -2.625,-2.625l-64.417,0.042c-6.625,-0 -9.917,-3.292 -9.917,-9.917l-0.041,-53.042c-0,-5.25 2.583,-7.916 7.791,-8c5.375,-0.125 41.209,-0.166 107.542,-0.208c66.292,0 102.125,0.042 107.5,0.125c5.208,0.125 7.792,2.792 7.792,8l-0,53.083c-0,6.584 -3.292,9.875 -9.917,9.875l-64.417,0c-1.75,0 -2.625,0.875 -2.625,2.625l-0.041,251.959c-0,4.5 -3.584,8.208 -8.042,8.333c-9.708,0.375 -19.792,0.542 -30.167,0.542Z" style="fill:#fff;fill-rule:nonzero;"/><path d="M2727.25,2177.21c-1.833,0 -2.792,0.917 -2.792,2.792l0,53.417c0,1.25 0.625,1.916 1.875,1.916l107.167,0.042c4.75,0 8.625,3.833 8.625,8.625l-0.042,52.667c0,5.375 -4.291,9.666 -9.625,9.666l-105.75,0c-1.541,0 -2.333,0.75 -2.333,2.334l0,58.625c0,1.541 0.792,2.333 2.375,2.333l130.375,0c4.625,0.042 8.417,3.792 8.417,8.5l-0.042,53.167c0,5.25 -4.25,9.458 -9.5,9.458l-197.333,-0.042c-5.584,0 -10.084,-4.5 -10.084,-10.041l0.084,-316c-0,-4.709 3.833,-8.542 8.541,-8.542l200.042,0.083c4.625,0 8.375,3.75 8.375,8.417l-0.042,51.583c0,7.375 -3.666,11.042 -11,11.042l-127.333,-0.042Z" style="fill:#fff;fill-rule:nonzero;"/><path d="M4129.21,2276.67l0,-20.459c0,-1.375 -0.666,-2.041 -2.041,-2.041l-17.834,-0c-5.125,-0 -9.291,-4.125 -9.291,-9.25l-0,-16.75c-0,-6.292 3.125,-9.417 9.416,-9.417l52.959,0c3.5,0 6.375,2.875 6.375,6.375l-0,76.708c-0,2.209 -1.209,4.25 -3.167,5.292c-39.917,21.417 -90.375,27.125 -130.375,2.625c-54.958,-33.75 -66.917,-108.583 -26.083,-159.958c36.916,-46.417 104.5,-52 152.125,-15c6.25,4.833 6.583,10.333 0.958,16.541l-9.792,10.792c-5.541,6.125 -11.75,6.542 -18.583,1.208c-31.333,-24.583 -76,-14.708 -96.208,20.209c-17.375,30 -10.625,67.125 16.666,88.416c21.292,16.625 47.375,16.875 73.042,7.334c1.208,-0.459 1.833,-1.334 1.833,-2.625Z" style="fill:#5c6670;fill-rule:nonzero;"/><path d="M4508.42,2110.38c3.666,0 6.125,1.417 7.416,4.208c27.5,59.542 58.084,126.25 91.792,200.125c0.708,1.625 0.75,3.5 0.125,5.167c-0.708,1.792 -3.292,2.833 -7.792,3.042c-4.458,0.208 -13.166,0.125 -26.041,-0.334c-2.875,-0.083 -5.459,-1.833 -6.625,-4.416l-14.167,-31.417c-0.5,-1.083 -1.625,-1.708 -3.417,-1.833c-2.375,-0.167 -16.166,-0.25 -41.5,-0.292c-25.291,-0.042 -39.125,0 -41.458,0.167c-1.792,0.125 -2.958,0.75 -3.458,1.833l-14.25,31.375c-1.167,2.583 -3.75,4.292 -6.625,4.375c-12.917,0.417 -21.584,0.5 -26.042,0.25c-4.5,-0.208 -7.125,-1.25 -7.792,-3.042c-0.625,-1.708 -0.583,-3.541 0.125,-5.166c33.917,-73.792 64.75,-140.375 92.417,-199.875c1.292,-2.792 3.75,-4.167 7.292,-4.167Zm-28.5,138.75c-0.417,0.917 0.25,1.958 1.25,1.958l53.75,-0.208c1,0 1.666,-1.042 1.25,-1.958l-27.084,-59.709c-0.5,-1.083 -2.041,-1.083 -2.5,0l-26.666,59.917Z" style="fill:#5c6670;fill-rule:nonzero;"/><path d="M5160.58,2284.67c-25.291,-0.042 -39.166,0.041 -41.5,0.208c-1.791,0.125 -2.916,0.708 -3.416,1.792l-14.292,31.375c-1.167,2.625 -3.75,4.333 -6.625,4.416c-12.917,0.417 -21.583,0.5 -26.083,0.25c-4.5,-0.25 -7.084,-1.25 -7.792,-3.083c-0.625,-1.667 -0.583,-3.542 0.167,-5.167c33.958,-73.791 64.75,-140.458 92.5,-199.958c1.291,-2.792 3.708,-4.167 7.25,-4.167c3.666,0 6.125,1.417 7.416,4.209c27.542,59.583 58.125,126.333 91.834,200.25c0.75,1.625 0.791,3.5 0.125,5.166c-0.667,1.834 -3.292,2.834 -7.792,3.042c-4.458,0.25 -13.167,0.125 -26.042,-0.333c-2.875,-0.084 -5.458,-1.792 -6.625,-4.417l-14.166,-31.417c-0.5,-1.083 -1.667,-1.708 -3.459,-1.833c-2.333,-0.167 -16.166,-0.292 -41.5,-0.333Zm-28.333,-35.375c-0.375,0.875 0.25,1.833 1.208,1.833l54,-0.208c0.917,-0 1.542,-0.959 1.167,-1.792l-27.208,-59.958c-0.459,-1 -1.917,-1 -2.375,0.041l-26.792,60.084Z" style="fill:#5c6670;fill-rule:nonzero;"/><path d="M5835.25,2192.33c-1.292,-1.375 -1.917,-1.125 -1.917,0.75l-0.083,119.5c0,6.917 -3.458,10.375 -10.375,10.334l-18.875,-0c-6.833,-0 -10.25,-3.417 -10.25,-10.25l0.125,-183.417c0,-22.583 7.75,-25.667 23.25,-9.167l111.667,118.834c1.5,1.541 2.208,1.208 2.208,-1l0.083,-114.209c0,-6.666 3.375,-9.958 10.042,-9.958l19.708,0c6.667,0 10,3.333 10,10c-0.083,58.625 -0.083,122.333 -0.083,191.167c0,4.291 -1.083,7.333 -3.25,9.125c-4.333,3.708 -10,2.75 -13.792,-1.459c-48.875,-54.083 -88.375,-97.5 -118.458,-130.25Z" style="fill:#5c6670;fill-rule:nonzero;"/><path d="M6109.25,2253.17c-3.875,-4.792 -10.208,-9.334 -19,-13.667c-22.667,-11.042 -35.042,-17.167 -37.167,-18.375c-24.791,-14.5 -35.083,-35.708 -30.916,-63.708c2.333,-15.625 11.166,-28.084 26.458,-37.292c28,-16.833 69.458,-10.542 96.292,7.833c5.833,4.042 7,9.125 3.458,15.292l-7,12.083c-3.25,5.625 -10.333,7.667 -16.083,4.709c-15.5,-8 -30.417,-17.25 -46.709,-13.25c-17.291,4.208 -22.958,21.166 -10.791,35.125c5.458,6.25 18.833,13.166 29.25,17.208c34.083,13.208 64.416,33.333 61.166,71.833c-3.125,36.959 -36.541,55.792 -72.291,55.042c-21.5,-0.417 -41.125,-6.958 -58.834,-19.708c-6.166,-4.459 -7.375,-10 -3.541,-16.625l6.25,-10.834c4.333,-7.5 10.166,-8.916 17.458,-4.25c13.542,8.625 30,17.709 46.375,15.209c18.208,-2.75 27.917,-21.334 15.625,-36.625Z" style="fill:#5c6670;fill-rule:nonzero;"/><path d="M4265.5,2241.71c-1.625,0.042 -2.458,0.875 -2.458,2.542l0.125,68.792c-0,6.708 -3.334,10.083 -10.042,10.083l-19.333,0.042c-7,-0 -10.542,-3.5 -10.542,-10.542l-0.375,-190.667c0,-4.583 3.708,-8.333 8.292,-8.333c32.208,-0.083 52.75,-0.208 61.583,-0.292c23.458,-0.25 39.25,1.334 47.375,4.792c55,23.333 52.417,96.958 -1.917,119.583c-0.916,0.375 -1.291,1.417 -0.833,2.25l40.042,74c2.25,4.125 -0.709,9.084 -5.375,9.125l-26.917,0.042c-5.958,0 -10.292,-2.667 -13,-8l-35.875,-71.417c-0.667,-1.375 -1.792,-2.041 -3.333,-2.041l-27.417,0.041Zm-1.875,-90.083l-0.25,54.75c-0.042,1 0.792,1.833 1.792,1.833l43.333,0.25c17.458,0.084 31.667,-12.625 31.75,-28.416l0,-1.25c0.083,-15.792 -14,-28.667 -31.417,-28.75l-43.333,-0.25c-1.042,-0 -1.833,0.833 -1.875,1.833Z" style="fill:#5c6670;fill-rule:nonzero;"/><path d="M4643.88,2120.83c0,-4.208 3.417,-7.625 7.625,-7.583l67.5,0.083c58.667,0.125 106.125,47.042 106.042,104.875l-0,0.5c-0.084,57.792 -47.75,104.584 -106.375,104.459l-67.5,-0.084c-4.209,-0.041 -7.625,-3.458 -7.625,-7.666l0.333,-194.584Zm38.333,32.417l0.25,129.917c0,1.291 1.042,2.333 2.334,2.333l32.375,-0.042c36,-0.083 65.166,-29.041 65.083,-64.666l0,-5.5c-0.083,-35.667 -29.292,-64.5 -65.333,-64.417l-32.375,0.042c-1.292,-0 -2.334,1.041 -2.334,2.333Z" style="fill:#5c6670;fill-rule:nonzero;"/><path d="M4953.21,2326.04c-49.333,-0 -85.041,-38.292 -83.833,-87.667c0.25,-12.25 0.417,-50.5 0.417,-114.792c-0,-6.666 3.291,-9.958 9.958,-9.958l20.792,0c6.625,0 9.916,3.292 9.916,9.875c-0.083,36.708 -0.083,73.292 0,109.75c0.042,11.583 0.917,19.875 2.709,24.875c5.833,16.708 22.166,28.25 40.041,28.25c17.834,0 34.167,-11.583 40,-28.292c1.792,-5 2.667,-13.25 2.709,-24.833c0.083,-36.458 0.083,-73.042 -0,-109.75c-0.042,-6.625 3.25,-9.917 9.875,-9.917l20.791,0c6.667,0 10,3.334 10,9.959c0,64.291 0.125,102.541 0.417,114.791c1.25,49.417 -34.458,87.709 -83.792,87.709Z" style="fill:#5c6670;fill-rule:nonzero;"/><path d="M5330.71,2322.92c-4.666,-0 -8.875,-0.125 -12.625,-0.334c-4.25,-0.25 -7.583,-3.791 -7.583,-8.083l0.083,-162.458c0,-1.375 -0.708,-2.084 -2.083,-2.084l-38.708,0c-6.959,0 -10.417,-3.5 -10.417,-10.416l-0,-15.792c-0,-6.875 3.417,-10.292 10.292,-10.292c21,0 41.375,0.042 61.125,0.042l61.125,0c6.833,0 10.291,3.417 10.291,10.292l-0.041,15.791c-0,6.959 -3.459,10.417 -10.417,10.417l-38.708,-0.042c-1.375,0 -2.084,0.709 -2.084,2.084l-0.083,162.458c-0,4.292 -3.292,7.833 -7.542,8.083c-3.75,0.25 -7.958,0.334 -12.625,0.334Z" style="fill:#5c6670;fill-rule:nonzero;"/><path d="M5481.54,2150c-1.5,0 -2.25,0.792 -2.25,2.292l0.041,43.416c0,1.459 0.709,2.167 2.209,2.167l66.708,0c6.792,-0.042 10.208,3.417 10.208,10.25l0.042,16.958c0,6.875 -3.458,10.292 -10.333,10.292l-66.709,0.042c-1.208,-0 -2.166,0.958 -2.166,2.166l-0,47.709c-0,0.625 0.541,1.125 1.166,1.125l83.375,-0c6.125,-0 9.167,3.041 9.167,9.208l0.042,17.917c-0,6.25 -3.125,9.375 -9.334,9.375l-115.916,-0c-4.542,-0 -8.25,-3.667 -8.292,-8.25l-0.042,-191.875c0,-6.167 3.125,-9.25 9.292,-9.25l114.542,-0.042c6.541,0 9.791,3.25 9.833,9.833l-0,16.917c-0,6.5 -3.292,9.75 -9.792,9.75l-81.791,0Z" style="fill:#5c6670;fill-rule:nonzero;"/><path d="M5732.33,2121.79l0,193c0,4.53 -3.678,8.208 -8.208,8.208l-23.25,0c-4.53,0 -8.208,-3.678 -8.208,-8.208l-0,-193c-0,-4.531 3.678,-8.209 8.208,-8.209l23.25,0c4.53,0 8.208,3.678 8.208,8.209Z" style="fill:#5c6670;"/><path d="M6255.12,2322.96c-4.667,0 -8.875,-0.125 -12.625,-0.375c-4.25,-0.291 -7.542,-3.833 -7.542,-8.083l0.292,-162.458c0,-1.375 -0.667,-2.084 -2.083,-2.084l-38.709,-0.041c-6.916,-0.042 -10.375,-3.5 -10.375,-10.459l0.042,-15.791c0,-6.834 3.417,-10.292 10.292,-10.25c21,0.041 41.375,0.083 61.125,0.125c19.75,0.041 40.083,0.083 61.083,0.083c6.875,0.042 10.292,3.458 10.292,10.333l-0.042,15.792c0,6.917 -3.5,10.417 -10.417,10.375l-38.708,-0.083c-1.417,-0 -2.083,0.708 -2.083,2.083l-0.334,162.458c0,4.25 -3.333,7.792 -7.583,8.042c-3.75,0.208 -7.958,0.333 -12.625,0.333Z" style="fill:#5c6670;fill-rule:nonzero;"/><path d="M6404.12,2122.04l0,192.333c0,4.737 -3.846,8.583 -8.583,8.583l-22.417,0c-4.737,0 -8.583,-3.846 -8.583,-8.583l-0,-192.333c-0,-4.738 3.846,-8.584 8.583,-8.584l22.417,0c4.737,0 8.583,3.846 8.583,8.584Z" style="fill:#5c6670;"/><path d="M6512.96,2322.92c-4.625,-0 -8.833,-0.125 -12.583,-0.334c-4.25,-0.291 -7.583,-3.833 -7.583,-8.083l0.083,-162.458c-0,-1.417 -0.708,-2.084 -2.083,-2.084l-38.709,-0.041c-6.958,-0 -10.416,-3.459 -10.416,-10.417l-0,-15.792c-0,-6.875 3.458,-10.291 10.333,-10.291c20.958,0.041 41.333,0.041 61.083,0.083l61.125,0c6.875,0 10.292,3.417 10.292,10.292l-0,15.791c-0,6.959 -3.5,10.417 -10.417,10.417l-38.708,-0.042c-1.417,0 -2.083,0.709 -2.083,2.084l-0.125,162.458c-0,4.292 -3.334,7.833 -7.584,8.083c-3.75,0.209 -7.958,0.334 -12.625,0.334Z" style="fill:#5c6670;fill-rule:nonzero;"/><path d="M6703.5,2326.12c-49.417,0 -85.208,-38.375 -84.042,-87.833c0.292,-12.292 0.417,-50.625 0.417,-115.042c0,-6.667 3.333,-10 9.958,-10l20.875,0c6.625,0 9.917,3.292 9.917,9.917c-0.083,36.791 -0.083,73.458 0.042,109.958c0.041,11.625 0.916,19.917 2.708,24.917c5.875,16.75 22.25,28.291 40.125,28.291c17.875,0 34.25,-11.583 40.083,-28.333c1.792,-5 2.667,-13.292 2.709,-24.917c0.083,-36.5 0.041,-73.166 -0.042,-109.958c-0.042,-6.625 3.25,-9.917 9.917,-9.917l20.833,0c6.667,0 10,3.334 10,9.959c0.042,64.416 0.167,102.791 0.458,115.041c1.25,49.5 -34.5,87.875 -83.958,87.917Z" style="fill:#5c6670;fill-rule:nonzero;"/><path d="M6894.33,2323.04c-4.666,-0 -8.875,-0.125 -12.666,-0.375c-4.25,-0.25 -7.542,-3.792 -7.542,-8.084l-0.042,-162.5c0,-1.416 -0.708,-2.083 -2.083,-2.083l-38.75,0c-6.958,0 -10.417,-3.458 -10.417,-10.417l0,-15.791c0,-6.875 3.417,-10.292 10.292,-10.334c21,0.042 41.375,0.042 61.125,0.042c19.792,0 40.167,-0.042 61.167,-0.042c6.875,0 10.291,3.417 10.291,10.292l0,15.792c0,6.958 -3.458,10.416 -10.416,10.416l-38.709,0c-1.416,0 -2.083,0.709 -2.083,2.084l0,162.541c0,4.292 -3.292,7.834 -7.542,8.084c-3.791,0.25 -8,0.375 -12.625,0.375Z" style="fill:#5c6670;fill-rule:nonzero;"/><path d="M7045.12,2150c-1.5,0 -2.25,0.792 -2.25,2.292l0,43.416c0,1.417 0.75,2.167 2.208,2.167l66.667,0c6.833,0 10.25,3.417 10.25,10.25l0,16.958c0,6.875 -3.458,10.292 -10.333,10.292l-66.667,0c-1.208,0 -2.167,0.958 -2.167,2.167l0,47.708c0,0.625 0.5,1.125 1.167,1.125l83.333,0c6.125,0 9.167,3.083 9.167,9.208l0,17.917c0,6.25 -3.083,9.375 -9.292,9.375l-115.875,0c-4.583,0 -8.291,-3.708 -8.291,-8.292l0.041,-191.791c0,-6.167 3.084,-9.25 9.25,-9.25l114.5,-0c6.542,-0 9.834,3.25 9.834,9.791l-0,16.959c-0,6.5 -3.292,9.708 -9.792,9.708l-81.75,0Z" style="fill:#5c6670;fill-rule:nonzero;"/><path d="M4200.46,2553.62c0,59.625 -48.333,107.958 -107.958,107.958c-59.625,0 -107.958,-48.333 -107.958,-107.958c-0,-59.625 48.333,-107.958 107.958,-107.958c59.625,-0 107.958,48.333 107.958,107.958Zm-40.333,0c-0,-37.375 -30.292,-67.667 -67.667,-67.667c-37.375,0 -67.666,30.292 -67.666,67.667c-0,37.375 30.291,67.667 67.666,67.667c37.375,-0 67.667,-30.292 67.667,-67.667Z" style="fill:#5c6670;fill-rule:nonzero;"/><path d="M4636.38,2527.5c-1.292,-1.375 -1.917,-1.125 -1.917,0.75l0,119.542c0,6.916 -3.458,10.375 -10.375,10.375l-18.875,-0c-6.833,-0 -10.25,-3.417 -10.25,-10.25l0,-183.459c0,-22.625 7.75,-25.666 23.25,-9.208l111.792,118.792c1.458,1.541 2.208,1.208 2.208,-1l0,-114.209c0,-6.666 3.334,-10 10.042,-10l19.708,0c6.667,0 10,3.334 10,10c-0.041,58.625 0,122.375 0.042,191.209c0,4.291 -1.083,7.375 -3.25,9.166c-4.333,3.709 -10,2.75 -13.792,-1.458c-48.958,-54.083 -88.458,-97.5 -118.583,-130.25Z" style="fill:#5c6670;fill-rule:nonzero;"/><path d="M5423.83,2527.46c-1.291,-1.333 -1.916,-1.083 -1.916,0.75l-0,119.709c-0,6.916 -3.459,10.416 -10.375,10.416l-18.875,0c-6.875,0 -10.292,-3.416 -10.292,-10.291l-0.042,-183.667c0,-22.667 7.792,-25.75 23.292,-9.25l111.958,118.958c1.459,1.542 2.209,1.209 2.209,-1.041l-0,-114.334c-0,-6.666 3.333,-10 10.041,-10l19.75,-0.041c6.667,-0 10,3.375 10,10.041c0,58.709 0,122.542 0.084,191.459c-0,4.291 -1.084,7.375 -3.25,9.166c-4.334,3.709 -10.042,2.75 -13.834,-1.458c-49,-54.125 -88.583,-97.625 -118.75,-130.417Z" style="fill:#5c6670;fill-rule:nonzero;"/><path d="M5695.21,2620c-25.291,-0.083 -39.125,0 -41.458,0.125c-1.792,0.125 -2.917,0.75 -3.417,1.833l-14.291,31.334c-1.167,2.625 -3.75,4.333 -6.625,4.416c-12.875,0.375 -21.584,0.459 -26.042,0.25c-4.5,-0.25 -7.083,-1.291 -7.792,-3.083c-0.625,-1.667 -0.583,-3.542 0.167,-5.167c33.917,-73.708 64.75,-140.291 92.458,-199.75c1.292,-2.75 3.75,-4.166 7.292,-4.166c3.667,0.041 6.125,1.416 7.417,4.208c27.458,59.542 58,126.25 91.666,200.125c0.709,1.625 0.75,3.458 0.125,5.167c-0.708,1.791 -3.291,2.791 -7.791,3c-4.5,0.25 -13.167,0.125 -26.042,-0.334c-2.875,-0.083 -5.458,-1.791 -6.625,-4.416l-14.125,-31.417c-0.5,-1.083 -1.667,-1.667 -3.417,-1.833c-2.375,-0.167 -16.208,-0.25 -41.5,-0.292Zm-28.458,-35.208c-0.375,0.833 0.25,1.75 1.167,1.75l54.25,-0.209c0.916,0 1.5,-0.916 1.125,-1.75l-27.334,-60.291c-0.458,-1 -1.833,-1 -2.291,-0l-26.917,60.5Z" style="fill:#5c6670;fill-rule:nonzero;"/><path d="M6276.83,2553.67c0,59.666 -48.333,108 -108,108c-59.666,-0 -108,-48.334 -108,-108c0,-59.667 48.334,-108 108,-108c59.667,-0 108,48.333 108,108Zm-40.333,-0c-0,-37.375 -30.292,-67.667 -67.667,-67.667c-37.375,0 -67.666,30.292 -67.666,67.667c-0,37.375 30.291,67.666 67.666,67.666c37.375,0 67.667,-30.291 67.667,-67.666Z" style="fill:#5c6670;fill-rule:nonzero;"/><path d="M6365.54,2527.54c-1.292,-1.375 -1.917,-1.125 -1.917,0.75l-0.042,119.5c0,6.916 -3.458,10.375 -10.375,10.375l-18.875,-0c-6.833,-0 -10.25,-3.417 -10.25,-10.25l0.084,-183.417c-0,-22.583 7.75,-25.667 23.25,-9.208l111.708,118.791c1.458,1.584 2.208,1.25 2.208,-1l0.042,-114.166c0,-6.667 3.333,-10 10.042,-10l19.666,0.041c6.667,0 10,3.334 10,10c-0.041,58.584 -0.041,122.334 0,191.125c0,4.292 -1.083,7.375 -3.25,9.167c-4.333,3.708 -10,2.75 -13.791,-1.458c-48.917,-54.084 -88.417,-97.5 -118.5,-130.25Z" style="fill:#5c6670;fill-rule:nonzero;"/><path d="M6636.79,2620c-25.292,-0.042 -39.125,0 -41.459,0.167c-1.791,0.125 -2.916,0.708 -3.416,1.791l-14.292,31.375c-1.167,2.584 -3.75,4.292 -6.625,4.375c-12.875,0.417 -21.583,0.5 -26.042,0.25c-4.5,-0.25 -7.083,-1.25 -7.791,-3.083c-0.625,-1.667 -0.584,-3.542 0.166,-5.167c33.917,-73.708 64.75,-140.291 92.459,-199.75c1.291,-2.791 3.708,-4.166 7.291,-4.166c3.625,-0 6.125,1.416 7.375,4.208c27.5,59.542 58.084,126.25 91.709,200.125c0.75,1.625 0.791,3.458 0.125,5.167c-0.667,1.791 -3.292,2.791 -7.792,3c-4.458,0.25 -13.125,0.125 -26.042,-0.334c-2.875,-0.083 -5.416,-1.791 -6.583,-4.416l-14.167,-31.417c-0.5,-1.083 -1.625,-1.667 -3.416,-1.792c-2.375,-0.208 -16.167,-0.291 -41.5,-0.333Zm-28.375,-35.417c-0.417,0.875 0.25,1.875 1.208,1.875l54.083,-0.166c0.959,-0 1.584,-1 1.209,-1.917l-27.25,-59.792c-0.5,-1.083 -1.959,-1.041 -2.459,0l-26.791,60Z" style="fill:#5c6670;fill-rule:nonzero;"/><path d="M7072.58,2620.04c-25.333,-0.084 -39.166,-0 -41.5,0.125c-1.791,0.125 -2.916,0.75 -3.416,1.833l-14.292,31.375c-1.167,2.583 -3.75,4.292 -6.625,4.375c-12.917,0.417 -21.583,0.5 -26.083,0.25c-4.5,-0.25 -7.084,-1.25 -7.75,-3.083c-0.667,-1.667 -0.584,-3.542 0.125,-5.167c33.958,-73.75 64.833,-140.333 92.541,-199.833c1.292,-2.792 3.709,-4.167 7.292,-4.167c3.667,0.042 6.125,1.417 7.417,4.208c27.458,59.584 58.041,126.334 91.708,200.209c0.708,1.625 0.75,3.5 0.083,5.166c-0.666,1.792 -3.291,2.834 -7.791,3.042c-4.459,0.208 -13.125,0.125 -26.042,-0.333c-2.875,-0.125 -5.458,-1.834 -6.625,-4.417l-14.125,-31.458c-0.5,-1.084 -1.667,-1.667 -3.417,-1.792c-2.375,-0.208 -16.208,-0.292 -41.5,-0.333Zm-28.458,-35.292c-0.375,0.792 0.208,1.75 1.125,1.75l54.25,-0.083c0.875,-0.042 1.5,-0.959 1.125,-1.792l-27.208,-60.333c-0.459,-1 -1.875,-1 -2.292,-0l-27,60.458Z" style="fill:#5c6670;fill-rule:nonzero;"/><path d="M7248.79,2527.46c-1.292,-1.375 -1.917,-1.125 -1.917,0.75l0.042,119.75c-0,6.917 -3.459,10.375 -10.375,10.375l-18.917,0.042c-6.833,0 -10.25,-3.417 -10.25,-10.292l-0.083,-183.75c-0,-22.625 7.75,-25.708 23.291,-9.208l112,118.917c1.5,1.583 2.209,1.208 2.209,-1l-0.042,-114.375c0,-6.709 3.375,-10.042 10.083,-10.042l19.709,0c6.708,0 10.041,3.333 10.041,10c0,58.75 0.042,122.583 0.125,191.542c0,4.291 -1.083,7.375 -3.25,9.166c-4.375,3.709 -10.041,2.75 -13.833,-1.458c-49.042,-54.167 -88.667,-97.625 -118.833,-130.417Z" style="fill:#5c6670;fill-rule:nonzero;"/><path d="M4289.58,2540.62l66.709,0c6.875,0 10.333,3.458 10.333,10.333l0,15.792c0,6.875 -3.417,10.333 -10.292,10.333l-66.791,0c-1.125,0 -2.042,0.917 -2.042,2.042l0,68.792c0,6.958 -3.458,10.458 -10.417,10.458l-19.25,0c-6.625,0 -9.916,-3.292 -9.916,-9.917l-0,-191.125c-0,-4.625 3.75,-8.375 8.333,-8.375l114.625,0c7,0 10.5,3.5 10.5,10.5l0,15.5c0,6.959 -3.5,10.459 -10.5,10.459l-81.292,-0c-1.375,-0 -2.083,0.708 -2.083,2.083l0,51.042c0,1.375 0.708,2.083 2.083,2.083Z" style="fill:#5c6670;fill-rule:nonzero;"/><path d="M4534.42,2457.71l-0,191.917c-0,4.829 -3.921,8.75 -8.75,8.75l-23.167,0c-4.829,0 -8.75,-3.921 -8.75,-8.75l0,-191.917c0,-4.829 3.921,-8.75 8.75,-8.75l23.167,0c4.829,0 8.75,3.921 8.75,8.75Z" style="fill:#5c6670;"/><path d="M4881.29,2658.38c-4.667,0 -8.875,-0.125 -12.625,-0.333c-4.25,-0.25 -7.584,-3.792 -7.584,-8.084l-0.125,-162.416c0,-1.375 -0.666,-2.084 -2.083,-2.084l-38.708,0.042c-6.917,0 -10.417,-3.5 -10.417,-10.417l-0,-15.791c-0,-6.875 3.417,-10.292 10.292,-10.292l61.125,0c19.708,-0.042 40.083,-0.083 61.083,-0.083c6.875,-0 10.292,3.416 10.292,10.291l0.041,15.792c0,6.917 -3.5,10.417 -10.416,10.417l-38.709,-0c-1.375,-0 -2.083,0.708 -2.083,2.083l0.083,162.458c0,4.25 -3.291,7.792 -7.541,8.084c-3.75,0.208 -7.959,0.333 -12.625,0.333Z" style="fill:#5c6670;fill-rule:nonzero;"/><path d="M5032.58,2485.5c-1.458,-0.042 -2.208,0.75 -2.208,2.25l-0.042,43.375c0,1.417 0.75,2.167 2.209,2.167l66.625,-0c6.833,-0 10.208,3.458 10.208,10.291l0,16.917c0,6.875 -3.458,10.292 -10.292,10.292l-66.625,-0.042c-1.208,0 -2.166,1 -2.166,2.167l-0.042,47.666c0,0.625 0.542,1.125 1.167,1.125l83.25,0.042c6.125,0 9.166,3.083 9.166,9.208l0,17.917c0,6.208 -3.083,9.333 -9.291,9.333l-115.75,-0.041c-4.584,-0 -8.292,-3.709 -8.292,-8.292l0.083,-191.583c0,-6.209 3.125,-9.292 9.292,-9.292l114.375,0.083c6.542,0 9.792,3.25 9.792,9.792l-0,16.917c-0,6.5 -3.25,9.708 -9.75,9.708l-81.709,0Z" style="fill:#5c6670;fill-rule:nonzero;"/><path d="M5217.38,2576.96c-1.625,0 -2.458,0.834 -2.458,2.5l-0,68.709c-0,6.708 -3.334,10.041 -10,10.041l-19.334,0c-7.041,0.042 -10.541,-3.5 -10.541,-10.5l-0.042,-190.458c0,-4.583 3.667,-8.292 8.25,-8.333c32.208,-0.042 52.708,-0.084 61.5,-0.209c23.458,-0.208 39.25,1.417 47.375,4.875c54.875,23.375 52.208,96.917 -2.125,119.459c-0.917,0.375 -1.292,1.416 -0.833,2.25l39.916,74c2.209,4.083 -0.75,9.041 -5.416,9.041l-26.875,0.042c-5.959,0 -10.292,-2.667 -13,-8l-35.709,-71.417c-0.666,-1.333 -1.791,-2.041 -3.333,-2.041l-27.375,0.041Zm-1.833,-89.666l0.166,54.75c0,1.041 0.834,1.833 1.834,1.833l43.291,-0.167c17.375,-0.041 31.417,-12.916 31.375,-28.708l0,-1.167c-0.041,-15.833 -14.166,-28.583 -31.541,-28.541l-43.292,0.166c-1.042,0 -1.833,0.834 -1.833,1.834Z" style="fill:#5c6670;fill-rule:nonzero;"/><path d="M5865.08,2658.42c-4.666,-0 -8.875,-0.125 -12.625,-0.375c-4.25,-0.25 -7.541,-3.792 -7.541,-8.084l0.041,-162.458c0,-1.417 -0.708,-2.083 -2.083,-2.083l-38.708,-0.042c-6.959,0 -10.417,-3.458 -10.417,-10.417l-0,-15.791c-0,-6.875 3.417,-10.292 10.292,-10.292c21,0.042 41.375,0.042 61.125,0.083c19.75,-0.041 40.125,-0.041 61.125,-0.041c6.875,-0 10.291,3.458 10.291,10.291l0,15.792c0,6.958 -3.458,10.417 -10.416,10.417l-38.709,-0c-1.416,-0 -2.083,0.708 -2.083,2.083l-0.083,162.5c-0,4.25 -3.334,7.792 -7.584,8.042c-3.75,0.25 -7.958,0.375 -12.625,0.375Z" style="fill:#5c6670;fill-rule:nonzero;"/><path d="M6013.62,2456.88l0,193.5c0,4.392 -3.566,7.958 -7.958,7.958l-23.75,0c-4.393,0 -7.959,-3.566 -7.959,-7.958l0,-193.5c0,-4.392 3.566,-7.958 7.959,-7.958l23.75,-0c4.392,-0 7.958,3.566 7.958,7.958Z" style="fill:#5c6670;"/><path d="M6811.71,2619.25c0,1.667 0.834,2.542 2.542,2.542l69.5,-0c6.583,-0 9.833,3.291 9.833,9.875l0,16.333c0,6.917 -3.458,10.333 -10.333,10.333l-103.083,-0.041c-4.625,-0 -8.417,-3.75 -8.417,-8.417l0.083,-191c0,-6.667 3.334,-10 10,-10l19.542,0c6.917,0 10.375,3.458 10.375,10.375l-0.042,160Z" style="fill:#5c6670;fill-rule:nonzero;"/><path d="M7447,2456.04c0,-4.125 3.375,-7.459 7.458,-7.417l68.292,0.083c58.417,0.125 105.667,47.042 105.583,104.792l0,0.5c-0.083,57.75 -47.541,104.5 -105.916,104.375l-68.292,-0.083c-4.125,-0.042 -7.458,-3.375 -7.458,-7.5l0.333,-194.75Zm39.75,31.083l-0.5,132.167c0,0.958 0.792,1.75 1.75,1.75l30.208,0.083c37.334,0.167 67.667,-29.375 67.792,-65.958l0,-3.25c0.125,-36.542 -30,-66.292 -67.292,-66.417l-30.208,-0.125c-1,0 -1.75,0.792 -1.75,1.75Z" style="fill:#5c6670;fill-rule:nonzero;"/><path d="M5167.38,2888.96c0,59.625 -48.333,107.959 -107.958,107.959c-59.625,-0 -107.959,-48.334 -107.959,-107.959c0,-59.625 48.334,-107.958 107.959,-107.958c59.625,0 107.958,48.333 107.958,107.958Zm-40.292,0c0,-37.375 -30.291,-67.666 -67.666,-67.666c-37.375,-0 -67.667,30.291 -67.667,67.666c0,37.375 30.292,67.667 67.667,67.667c37.375,0 67.666,-30.292 67.666,-67.667Z" style="fill:#5c6670;fill-rule:nonzero;"/><path d="M5496.88,2922.46c0.167,0 0.333,-0.041 0.542,-0.083c0.333,-0.125 0.583,-0.333 0.75,-0.708c18.625,-39.834 39.625,-84.667 62.958,-134.5c2.375,-5.125 6.292,-6.959 11.708,-5.584c3.292,0.834 5.792,3.542 6.375,6.917l33.959,194.125c1.333,7.542 -1.834,11.333 -9.459,11.333l-18.083,0c-6.833,0 -10.75,-3.375 -11.792,-10.125l-15.541,-101.916c-0.542,-3.625 -1.584,-3.792 -3.042,-0.417c-12.333,27.875 -28.542,64.042 -48.667,108.5c-2.166,4.75 -5.416,7.125 -9.791,7.125c-4.417,0 -7.667,-2.375 -9.792,-7.125c-20.042,-44.542 -36.167,-80.75 -48.417,-108.625c-1.458,-3.375 -2.5,-3.25 -3.041,0.375l-15.792,101.917c-1.042,6.708 -5,10.083 -11.833,10.083l-18.084,-0.042c-7.625,-0.041 -10.791,-3.833 -9.416,-11.375l34.416,-194.041c0.584,-3.375 3.125,-6.084 6.417,-6.875c5.417,-1.375 9.292,0.458 11.667,5.583c23.208,49.917 44.083,94.792 62.625,134.667c0.166,0.375 0.458,0.583 0.791,0.708c0.167,0.042 0.334,0.083 0.542,0.083Z" style="fill:#5c6670;fill-rule:nonzero;"/><path d="M5888.88,2862.96c-1.25,-1.375 -1.917,-1.125 -1.917,0.75l-0.041,119.667c-0,6.917 -3.459,10.375 -10.375,10.375l-18.917,0c-6.833,0 -10.25,-3.417 -10.25,-10.25l0.083,-183.708c0,-22.625 7.75,-25.709 23.25,-9.209l111.917,119c1.458,1.542 2.208,1.209 2.208,-1l0.042,-114.375c0,-6.666 3.333,-10 10.042,-10l19.75,0c6.666,0 10,3.334 10,10.042c-0.042,58.708 -0.042,122.5 -0.042,191.417c0,4.333 -1.083,7.375 -3.25,9.208c-4.333,3.708 -10,2.75 -13.792,-1.5c-49,-54.167 -88.541,-97.625 -118.708,-130.417Z" style="fill:#5c6670;fill-rule:nonzero;"/><path d="M6372.25,2960.5c18.208,-2.75 27.917,-21.333 15.625,-36.625c-3.875,-4.792 -10.208,-9.375 -19,-13.667c-22.667,-11.041 -35.042,-17.208 -37.167,-18.416c-24.791,-14.459 -35.125,-35.709 -30.916,-63.709c2.333,-15.625 11.166,-28.083 26.458,-37.291c28,-16.834 69.458,-10.542 96.292,7.833c5.875,4.042 7,9.125 3.458,15.292l-7,12.083c-3.25,5.625 -10.333,7.708 -16.083,4.708c-15.5,-8 -30.417,-17.25 -46.709,-13.25c-17.291,4.209 -22.958,21.167 -10.791,35.125c5.458,6.25 18.833,13.167 29.25,17.209c34.083,13.208 64.416,33.375 61.166,71.875c-3.125,36.958 -36.541,55.791 -72.291,55.041c-21.542,-0.416 -41.125,-7 -58.834,-19.708c-6.208,-4.458 -7.375,-10 -3.541,-16.625l6.25,-10.833c4.333,-7.5 10.166,-8.917 17.458,-4.25c13.542,8.625 30,17.708 46.375,15.208Z" style="fill:#5c6670;fill-rule:nonzero;"/><path d="M7457.96,2923.88c-3.875,-4.833 -10.208,-9.375 -19.041,-13.667c-22.667,-11.041 -35.042,-17.166 -37.167,-18.375c-24.833,-14.458 -35.125,-35.708 -30.958,-63.708c2.291,-15.625 11.125,-28.042 26.416,-37.292c28,-16.875 69.459,-10.583 96.292,7.75c5.875,4.042 7.042,9.125 3.458,15.292l-6.958,12.083c-3.25,5.625 -10.333,7.709 -16.083,4.709c-15.5,-7.959 -30.459,-17.209 -46.75,-13.209c-17.25,4.25 -22.917,21.209 -10.75,35.125c5.458,6.25 18.833,13.167 29.291,17.209c34.084,13.166 64.417,33.333 61.209,71.833c-3.084,36.958 -36.5,55.792 -72.25,55.083c-21.542,-0.416 -41.125,-6.958 -58.834,-19.666c-6.208,-4.459 -7.416,-10 -3.583,-16.625l6.25,-10.834c4.333,-7.5 10.167,-8.916 17.458,-4.25c13.542,8.625 30,17.667 46.375,15.167c18.209,-2.75 27.917,-21.375 15.625,-36.625Z" style="fill:#5c6670;fill-rule:nonzero;"/><path d="M4000,2792.62c0,-4.708 3.833,-8.542 8.542,-8.542l67.333,0c58.292,0 105.542,46.625 105.542,104.167l-0,1.417c-0,57.541 -47.25,104.166 -105.542,104.166l-67.333,0c-4.709,0 -8.542,-3.833 -8.542,-8.541l0,-192.667Zm39.375,29.958l0.5,132.334c0,0.875 0.667,1.541 1.542,1.541l31.375,-0.125c36.958,-0.125 66.791,-30.25 66.666,-67.291l0,-1.25c-0.125,-37.042 -30.208,-67 -67.166,-66.875l-31.375,0.125c-0.834,-0 -1.542,0.708 -1.542,1.541Z" style="fill:#5c6670;fill-rule:nonzero;"/><path d="M4271.25,2820.83c-1.5,0 -2.25,0.75 -2.25,2.292l-0.042,43.375c0,1.417 0.75,2.167 2.209,2.167l66.666,0.041c6.834,0 10.25,3.417 10.209,10.292l-0,16.917c-0,6.875 -3.417,10.291 -10.334,10.291l-66.666,-0.041c-1.167,-0 -2.167,0.958 -2.167,2.166l0,47.709c0,0.625 0.5,1.125 1.167,1.125l83.291,0.041c6.125,0 9.209,3.084 9.209,9.209l-0.042,17.916c0,6.25 -3.083,9.375 -9.292,9.375l-115.875,-0.083c-4.541,0 -8.25,-3.708 -8.25,-8.292l0.125,-191.75c0,-6.166 3.084,-9.25 9.292,-9.25l114.458,0.084c6.542,-0 9.792,3.25 9.792,9.791l0,16.959c0,6.458 -3.292,9.708 -9.792,9.708l-81.708,-0.042Z" style="fill:#5c6670;fill-rule:nonzero;"/><path d="M4491.71,2914.96c0.417,0 0.667,-0.125 0.75,-0.291c18.834,-41.709 37.25,-82.959 55.209,-123.667c2,-4.542 5.458,-6.792 10.416,-6.792l27.209,0c6.333,0 8.166,2.875 5.541,8.667c-27.208,59.75 -57.5,125.667 -90.875,197.75c-1.916,4.125 -4.666,6.167 -8.291,6.167c-3.709,-0 -6.5,-2.084 -8.417,-6.209c-33.292,-72.083 -63.542,-138 -90.708,-197.791c-2.625,-5.792 -0.792,-8.667 5.541,-8.667l27.209,0.042c4.958,-0 8.416,2.25 10.416,6.791c17.917,40.75 36.292,81.959 55.084,123.709c0.083,0.166 0.416,0.291 0.916,0.291Z" style="fill:#5c6670;fill-rule:nonzero;"/><path d="M4669.04,2820.88c-1.5,0 -2.25,0.75 -2.25,2.292l0.041,43.375c0,1.458 0.709,2.166 2.209,2.166l66.666,-0.041c6.834,-0 10.209,3.416 10.209,10.25l0.041,16.958c0,6.875 -3.458,10.292 -10.333,10.292l-66.667,0.041c-1.208,0 -2.166,0.959 -2.166,2.167l0.041,47.708c0,0.625 0.5,1.125 1.167,1.125l83.292,-0.041c6.125,-0 9.208,3.041 9.208,9.166l-0,17.959c-0,6.208 -3.083,9.333 -9.292,9.333l-115.833,0.083c-4.583,0 -8.292,-3.708 -8.292,-8.291l-0.125,-191.709c0,-6.208 3.125,-9.291 9.292,-9.291l114.458,-0.084c6.542,0 9.834,3.292 9.834,9.834l-0,16.916c-0,6.5 -3.25,9.75 -9.75,9.75l-81.75,0.042Z" style="fill:#5c6670;fill-rule:nonzero;"/><path d="M4851.46,2954.67c0,1.666 0.834,2.541 2.542,2.541l69.542,0.209c6.583,0.041 9.833,3.333 9.833,9.916l-0.083,16.334c-0,6.916 -3.459,10.333 -10.375,10.333l-103.125,-0.333c-4.625,-0.042 -8.375,-3.792 -8.375,-8.459l0.625,-191.125c-0,-6.666 3.333,-10 10.041,-9.958l19.542,0.042c6.917,0.041 10.375,3.5 10.333,10.416l-0.5,160.084Z" style="fill:#5c6670;fill-rule:nonzero;"/><path d="M5256.46,2917.79c-1.5,-0 -2.25,0.75 -2.25,2.25l-0.083,63.333c-0,6.958 -3.5,10.458 -10.458,10.417l-18.709,-0c-6.958,-0 -10.458,-3.5 -10.416,-10.5l0.25,-190.709c-0,-4.625 3.75,-8.333 8.333,-8.291c16.167,0.083 32,-0 47.542,-0.292c21.625,-0.417 37,1.333 46.125,5.292c68.916,29.583 46.333,130.166 -28.5,128.625c-6.875,-0.167 -17.459,-0.209 -31.834,-0.125Zm-2.208,-94.167l-0.167,54.583c0,1.084 0.875,1.959 1.959,1.959l31.666,0.125c17.084,0.083 31,-12.834 31.042,-28.792l-0,-0.667c0.042,-16 -13.75,-28.958 -30.875,-29.041l-31.667,-0.125c-1.083,-0 -1.958,0.875 -1.958,1.958Z" style="fill:#5c6670;fill-rule:nonzero;"/><path d="M5704.54,2820.83c-1.5,0 -2.25,0.75 -2.25,2.292l-0,43.375c-0,1.458 0.708,2.167 2.208,2.167l66.667,0.041c6.791,0 10.208,3.417 10.208,10.25l0,16.959c0,6.875 -3.458,10.291 -10.333,10.291l-66.667,-0.041c-1.208,-0 -2.167,1 -2.167,2.166l0,47.709c0,0.625 0.5,1.125 1.167,1.125l83.292,0.041c6.125,0 9.208,3.084 9.208,9.209l-0.042,17.916c0,6.25 -3.083,9.375 -9.291,9.375l-115.875,-0.083c-4.542,0 -8.25,-3.708 -8.25,-8.292l0.083,-191.708c0,-6.208 3.125,-9.292 9.292,-9.292l114.458,0.084c6.542,-0 9.833,3.25 9.833,9.791l-0.041,16.917c-0,6.5 -3.25,9.75 -9.75,9.75l-81.75,-0.042Z" style="fill:#5c6670;fill-rule:nonzero;"/><path d="M6133.25,2993.75c-4.667,0 -8.875,-0.125 -12.625,-0.375c-4.25,-0.25 -7.542,-3.792 -7.542,-8.083l0.292,-162.417c0,-1.417 -0.667,-2.083 -2.083,-2.083l-38.667,-0.084c-6.958,0 -10.417,-3.5 -10.417,-10.416l0.042,-15.792c0,-6.875 3.458,-10.292 10.292,-10.292c21,0.042 41.375,0.125 61.125,0.167c19.75,0 40.125,0.042 61.083,0.083c6.875,0 10.292,3.417 10.292,10.292l-0.042,15.792c0,6.958 -3.5,10.416 -10.417,10.375l-38.708,-0.042c-1.375,0 -2.083,0.667 -2.083,2.083l-0.334,162.417c0,4.292 -3.333,7.792 -7.583,8.042c-3.75,0.25 -7.958,0.333 -12.625,0.333Z" style="fill:#5c6670;fill-rule:nonzero;"/><path d="M6533.83,2993.79c-4.666,-0 -8.875,-0.125 -12.625,-0.334c-4.25,-0.25 -7.541,-3.791 -7.541,-8.083l-0,-162.5c-0,-1.417 -0.709,-2.083 -2.084,-2.083l-38.708,-0c-6.958,-0 -10.458,-3.5 -10.458,-10.459l0.041,-15.791c0,-6.834 3.417,-10.292 10.292,-10.292c21,0.042 41.375,0.042 61.125,0.042l61.125,-0c6.875,-0 10.292,3.416 10.292,10.291l-0,15.792c-0,6.958 -3.459,10.417 -10.417,10.417l-38.708,-0c-1.375,-0 -2.084,0.666 -2.084,2.083l-0.041,162.5c-0,4.292 -3.334,7.833 -7.584,8.083c-3.75,0.25 -7.958,0.334 -12.625,0.334Z" style="fill:#5c6670;fill-rule:nonzero;"/><path d="M6724.75,2996.67c-49.333,-0.084 -84.958,-38.417 -83.708,-87.75c0.333,-12.25 0.5,-50.5 0.583,-114.75c0,-6.667 3.333,-10 9.958,-9.959l20.834,0c6.625,0 9.916,3.292 9.875,9.917c-0.125,36.708 -0.167,73.292 -0.125,109.708c-0,11.584 0.875,19.875 2.625,24.834c5.875,16.708 22.166,28.291 40,28.333c17.833,0 34.208,-11.542 40.083,-28.208c1.75,-5 2.667,-13.292 2.708,-24.875c0.125,-36.417 0.167,-73 0.125,-109.709c0,-6.583 3.292,-9.875 9.875,-9.875l20.834,0.042c6.625,0 9.958,3.333 9.958,9.958c-0.083,64.25 0,102.542 0.292,114.75c1.166,49.375 -34.584,87.625 -83.917,87.584Z" style="fill:#5c6670;fill-rule:nonzero;"/><path d="M6867.12,2793.33c-0.042,-4.875 3.917,-8.833 8.792,-8.875l67.833,-0.333c57.875,-0.292 105.083,45.583 105.375,102.542l0,3.416c0.292,56.917 -46.375,103.292 -104.292,103.625l-67.833,0.334c-4.875,0.041 -8.833,-3.917 -8.875,-8.792l-1,-191.917Zm40.417,29.125l-0.5,132.25c-0,0.875 0.75,1.625 1.625,1.625l31.375,0.125c37,0.125 67.125,-29.458 67.25,-66.083l-0,-2.917c0.125,-36.583 -29.75,-66.375 -66.75,-66.5l-31.375,-0.125c-0.917,0 -1.625,0.709 -1.625,1.625Z" style="fill:#5c6670;fill-rule:nonzero;"/><path d="M7137.5,2793.04l0,192c0,4.806 -3.902,8.708 -8.708,8.708l-23.25,0c-4.807,0 -8.709,-3.902 -8.709,-8.708l0,-192c0,-4.807 3.902,-8.709 8.709,-8.709l23.25,0c4.806,0 8.708,3.902 8.708,8.709Z" style="fill:#5c6670;"/><path d="M7240.38,2820.75c-1.5,0 -2.25,0.792 -2.25,2.292l0.042,43.5c-0,1.416 0.708,2.166 2.208,2.166l66.833,-0.041c6.834,-0 10.25,3.416 10.25,10.291l0,16.959c0,6.916 -3.458,10.333 -10.333,10.375l-66.833,-0c-1.209,-0 -2.167,1 -2.167,2.166l0.042,47.834c-0,0.625 0.5,1.125 1.166,1.125l83.5,-0.042c6.125,0 9.209,3.083 9.209,9.208l-0,17.959c-0,6.25 -3.125,9.375 -9.334,9.375l-116.083,0.083c-4.583,0 -8.292,-3.708 -8.292,-8.292l-0.083,-192.208c-0.042,-6.167 3.083,-9.292 9.292,-9.292l114.708,-0.041c6.542,-0 9.833,3.291 9.833,9.833l0,16.958c0,6.5 -3.25,9.75 -9.791,9.75l-81.917,0.042Z" style="fill:#5c6670;fill-rule:nonzero;"/></g></svg>